<svg width="406" height="689" viewBox="0 0 406 689" fill="none" xmlns="http://www.w3.org/2000/svg">
<g filter="url(#filter0_d_422_199)">
<rect x="5" y="1" width="396" height="679" rx="24" fill="#1E1F22" shape-rendering="crispEdges"/>
<rect x="5" y="1" width="396" height="679" rx="24" stroke="#373A3D" stroke-width="2" shape-rendering="crispEdges"/>
<path opacity="0.6" d="M94.6446 40V28.336H96.3886V38.832L96.0526 38.432H101.957V40H94.6446ZM106.82 40.144C106.201 40.144 105.636 40.0427 105.124 39.84C104.622 39.6373 104.19 39.344 103.828 38.96C103.465 38.576 103.182 38.1173 102.98 37.584C102.777 37.0507 102.676 36.4533 102.676 35.792C102.676 34.9173 102.841 34.1547 103.172 33.504C103.513 32.8427 103.993 32.3307 104.612 31.968C105.241 31.5947 105.977 31.408 106.82 31.408C107.438 31.408 107.998 31.5093 108.5 31.712C109.012 31.904 109.449 32.192 109.812 32.576C110.174 32.96 110.452 33.424 110.644 33.968C110.846 34.5013 110.948 35.104 110.948 35.776C110.948 36.64 110.782 37.4027 110.452 38.064C110.121 38.7147 109.646 39.2267 109.028 39.6C108.409 39.9627 107.673 40.144 106.82 40.144ZM106.82 38.768C107.31 38.768 107.737 38.656 108.1 38.432C108.473 38.1973 108.761 37.856 108.964 37.408C109.166 36.96 109.268 36.416 109.268 35.776C109.268 35.296 109.209 34.8747 109.092 34.512C108.985 34.1387 108.825 33.824 108.612 33.568C108.398 33.3013 108.142 33.104 107.844 32.976C107.545 32.8373 107.204 32.768 106.82 32.768C106.329 32.768 105.897 32.8853 105.524 33.12C105.161 33.3547 104.873 33.696 104.66 34.144C104.457 34.5813 104.356 35.1307 104.356 35.792C104.356 36.2613 104.409 36.6827 104.516 37.056C104.633 37.4187 104.798 37.728 105.012 37.984C105.236 38.24 105.497 38.4373 105.796 38.576C106.105 38.704 106.446 38.768 106.82 38.768ZM116.558 40.144C115.939 40.144 115.374 40.0427 114.862 39.84C114.36 39.6373 113.928 39.344 113.566 38.96C113.203 38.576 112.92 38.1173 112.718 37.584C112.515 37.0507 112.414 36.4533 112.414 35.792C112.414 34.9173 112.579 34.1547 112.91 33.504C113.251 32.8427 113.731 32.3307 114.35 31.968C114.979 31.5947 115.715 31.408 116.558 31.408C117.176 31.408 117.736 31.5093 118.238 31.712C118.75 31.904 119.187 32.192 119.55 32.576C119.912 32.96 120.19 33.424 120.382 33.968C120.584 34.5013 120.686 35.104 120.686 35.776C120.686 36.64 120.52 37.4027 120.19 38.064C119.859 38.7147 119.384 39.2267 118.766 39.6C118.147 39.9627 117.411 40.144 116.558 40.144ZM116.558 38.768C117.048 38.768 117.475 38.656 117.838 38.432C118.211 38.1973 118.499 37.856 118.702 37.408C118.904 36.96 119.006 36.416 119.006 35.776C119.006 35.296 118.947 34.8747 118.83 34.512C118.723 34.1387 118.563 33.824 118.35 33.568C118.136 33.3013 117.88 33.104 117.582 32.976C117.283 32.8373 116.942 32.768 116.558 32.768C116.067 32.768 115.635 32.8853 115.262 33.12C114.899 33.3547 114.611 33.696 114.398 34.144C114.195 34.5813 114.094 35.1307 114.094 35.792C114.094 36.2613 114.147 36.6827 114.254 37.056C114.371 37.4187 114.536 37.728 114.75 37.984C114.974 38.24 115.235 38.4373 115.534 38.576C115.843 38.704 116.184 38.768 116.558 38.768ZM122.572 40V28.336H124.236V35.584L124.972 34.784L128.124 31.536H130.172L126.892 34.832L130.3 40H128.364L126.252 36.8L125.74 35.952L124.236 37.408V40H122.572Z" fill="white"/>
<rect x="207" y="17" width="178" height="35" rx="8" fill="#2B2D31"/>
<path d="M279.76 40V28.336H284.48C285.099 28.336 285.659 28.4213 286.16 28.592C286.661 28.752 287.088 28.992 287.44 29.312C287.803 29.6213 288.075 30.0053 288.256 30.464C288.448 30.9227 288.544 31.4507 288.544 32.048C288.544 32.7947 288.379 33.4507 288.048 34.016C287.728 34.5707 287.264 35.0027 286.656 35.312C286.048 35.6107 285.317 35.76 284.464 35.76H281.312V34.368H284.208C284.709 34.368 285.152 34.288 285.536 34.128C285.92 33.968 286.219 33.7173 286.432 33.376C286.656 33.0347 286.768 32.608 286.768 32.096C286.768 31.5733 286.656 31.1467 286.432 30.816C286.219 30.4853 285.92 30.24 285.536 30.08C285.152 29.92 284.709 29.84 284.208 29.84H281.232L281.504 29.568V40H279.76ZM293.06 40.144C292.548 40.144 292.078 40.048 291.652 39.856C291.236 39.664 290.873 39.3867 290.564 39.024C290.254 38.6507 290.014 38.192 289.844 37.648C289.684 37.104 289.604 36.4747 289.604 35.76C289.604 34.8213 289.748 34.0267 290.036 33.376C290.334 32.7253 290.74 32.2347 291.252 31.904C291.774 31.5627 292.377 31.392 293.06 31.392C293.529 31.392 293.956 31.4667 294.34 31.616C294.734 31.7653 295.065 31.9787 295.332 32.256C295.609 32.5227 295.812 32.8373 295.94 33.2H296.036L296.1 31.536H297.684V40H296.036V38.32H295.94C295.737 38.864 295.385 39.3067 294.884 39.648C294.382 39.9787 293.774 40.144 293.06 40.144ZM293.636 38.784C294.158 38.784 294.596 38.6613 294.948 38.416C295.3 38.1707 295.566 37.856 295.748 37.472C295.929 37.088 296.02 36.6773 296.02 36.24V35.28C296.02 34.8427 295.929 34.432 295.748 34.048C295.566 33.664 295.3 33.3493 294.948 33.104C294.596 32.8587 294.158 32.736 293.636 32.736C293.166 32.736 292.756 32.8533 292.404 33.088C292.052 33.312 291.78 33.648 291.588 34.096C291.396 34.5333 291.3 35.088 291.3 35.76C291.3 36.4213 291.396 36.976 291.588 37.424C291.78 37.872 292.052 38.2133 292.404 38.448C292.756 38.672 293.166 38.784 293.636 38.784ZM300.152 40V31.536H301.8V40H300.152ZM300.152 30.24V28.336H301.8V30.24H300.152ZM304.249 40V31.536H305.817L305.882 33.216H305.977C306.223 32.6187 306.607 32.1707 307.129 31.872C307.652 31.5627 308.223 31.408 308.842 31.408C309.279 31.408 309.679 31.472 310.042 31.6C310.415 31.728 310.735 31.936 311.002 32.224C311.279 32.5013 311.492 32.8693 311.642 33.328C311.791 33.776 311.866 34.3253 311.866 34.976V40H310.218V35.312C310.218 34.736 310.148 34.2613 310.01 33.888C309.871 33.504 309.658 33.2213 309.37 33.04C309.082 32.8587 308.708 32.768 308.25 32.768C307.77 32.768 307.348 32.8853 306.986 33.12C306.634 33.3547 306.361 33.6693 306.169 34.064C305.977 34.448 305.882 34.8853 305.882 35.376V40H304.249ZM316.466 40C315.997 40 315.629 39.936 315.362 39.808C315.095 39.6693 314.909 39.4667 314.802 39.2C314.695 38.9333 314.642 38.6133 314.642 38.24V32.88H313.042V31.536H314.642V29.088L316.29 28.896V31.536H318.162V32.88H316.29V37.936C316.29 38.224 316.343 38.416 316.45 38.512C316.557 38.5973 316.743 38.64 317.01 38.64H318.162V40H316.466Z" fill="white"/>
<g clip-path="url(#clip0_422_199)">
<rect x="21" y="60" width="364" height="440" rx="8" fill="#2B2D31"/>
<path opacity="0.6" d="M38.344 93V81.336H41.592L44.376 89.624H44.456L47.24 81.336H50.488V93H48.44V87.96L48.488 83.56H48.376L45.304 93H43.528L40.488 83.56H40.36L40.408 87.992V93H38.344ZM53.1401 93L57.1561 81.336H60.1321L64.1481 93H61.9561L61.0761 90.44H56.2121L55.3481 93H53.1401ZM56.7241 88.808H60.5801L59.4281 85.528L58.6921 83.272H58.6121L57.8601 85.528L56.7241 88.808ZM66.8102 93V81.336H68.9222V93H66.8102ZM72.8715 93V81.336H75.4315L80.9035 90.12H80.9995L80.9195 86.312V81.336H82.9515V93H80.5195L75.0635 84.36H74.9515L75.0155 87.848V93H72.8715ZM96.7215 93.144C95.8575 93.144 95.0682 93.0107 94.3535 92.744C93.6495 92.4667 93.0415 92.072 92.5295 91.56C92.0175 91.0373 91.6228 90.408 91.3455 89.672C91.0682 88.936 90.9295 88.0987 90.9295 87.16C90.9295 86.232 91.0682 85.4 91.3455 84.664C91.6228 83.928 92.0175 83.304 92.5295 82.792C93.0415 82.2693 93.6495 81.8747 94.3535 81.608C95.0682 81.3307 95.8575 81.192 96.7215 81.192C97.7028 81.192 98.5775 81.3627 99.3455 81.704C100.114 82.0453 100.732 82.5253 101.202 83.144C101.682 83.752 101.98 84.472 102.098 85.304H99.9375C99.8415 84.8453 99.6442 84.4453 99.3455 84.104C99.0575 83.7627 98.6895 83.496 98.2415 83.304C97.8042 83.112 97.2975 83.016 96.7215 83.016C95.9855 83.016 95.3455 83.176 94.8015 83.496C94.2682 83.8053 93.8522 84.2693 93.5535 84.888C93.2655 85.5067 93.1215 86.264 93.1215 87.16C93.1215 87.8427 93.2068 88.4453 93.3775 88.968C93.5482 89.48 93.7882 89.912 94.0975 90.264C94.4068 90.616 94.7802 90.8827 95.2175 91.064C95.6655 91.2347 96.1668 91.32 96.7215 91.32C97.2868 91.32 97.7935 91.224 98.2415 91.032C98.6895 90.84 99.0628 90.5733 99.3615 90.232C99.6602 89.88 99.8522 89.4747 99.9375 89.016H102.098C102.002 89.848 101.708 90.5733 101.218 91.192C100.738 91.8107 100.114 92.2907 99.3455 92.632C98.5775 92.9733 97.7028 93.144 96.7215 93.144ZM110.58 93.144C109.705 93.144 108.911 93.0107 108.196 92.744C107.492 92.4667 106.884 92.072 106.372 91.56C105.86 91.048 105.465 90.424 105.188 89.688C104.911 88.9413 104.772 88.0987 104.772 87.16C104.772 86.2213 104.911 85.384 105.188 84.648C105.465 83.912 105.86 83.288 106.372 82.776C106.884 82.264 107.492 81.8747 108.196 81.608C108.911 81.3307 109.705 81.192 110.58 81.192C111.455 81.192 112.244 81.3307 112.948 81.608C113.663 81.8747 114.276 82.2693 114.788 82.792C115.311 83.304 115.705 83.928 115.972 84.664C116.249 85.3893 116.388 86.2213 116.388 87.16C116.388 88.0987 116.249 88.9413 115.972 89.688C115.695 90.424 115.3 91.048 114.788 91.56C114.276 92.072 113.663 92.4667 112.948 92.744C112.244 93.0107 111.455 93.144 110.58 93.144ZM110.58 91.32C111.327 91.32 111.972 91.16 112.516 90.84C113.06 90.52 113.476 90.0507 113.764 89.432C114.063 88.8133 114.212 88.056 114.212 87.16C114.212 86.488 114.127 85.896 113.956 85.384C113.785 84.872 113.54 84.44 113.22 84.088C112.911 83.736 112.532 83.4693 112.084 83.288C111.636 83.1067 111.135 83.016 110.58 83.016C109.844 83.016 109.204 83.176 108.66 83.496C108.116 83.8053 107.695 84.2693 107.396 84.888C107.108 85.5067 106.964 86.264 106.964 87.16C106.964 87.832 107.049 88.4293 107.22 88.952C107.391 89.4747 107.631 89.912 107.94 90.264C108.26 90.616 108.639 90.8827 109.076 91.064C109.524 91.2347 110.025 91.32 110.58 91.32ZM119.616 93V81.336H121.728V91.512L121.376 91.112H127.104V93H119.616ZM134.452 93.144C133.578 93.144 132.783 93.0107 132.068 92.744C131.364 92.4667 130.756 92.072 130.244 91.56C129.732 91.048 129.338 90.424 129.06 89.688C128.783 88.9413 128.644 88.0987 128.644 87.16C128.644 86.2213 128.783 85.384 129.06 84.648C129.338 83.912 129.732 83.288 130.244 82.776C130.756 82.264 131.364 81.8747 132.068 81.608C132.783 81.3307 133.578 81.192 134.452 81.192C135.327 81.192 136.116 81.3307 136.82 81.608C137.535 81.8747 138.148 82.2693 138.66 82.792C139.183 83.304 139.578 83.928 139.844 84.664C140.122 85.3893 140.26 86.2213 140.26 87.16C140.26 88.0987 140.122 88.9413 139.844 89.688C139.567 90.424 139.172 91.048 138.66 91.56C138.148 92.072 137.535 92.4667 136.82 92.744C136.116 93.0107 135.327 93.144 134.452 93.144ZM134.452 91.32C135.199 91.32 135.844 91.16 136.388 90.84C136.932 90.52 137.348 90.0507 137.636 89.432C137.935 88.8133 138.084 88.056 138.084 87.16C138.084 86.488 137.999 85.896 137.828 85.384C137.658 84.872 137.412 84.44 137.092 84.088C136.783 83.736 136.404 83.4693 135.956 83.288C135.508 83.1067 135.007 83.016 134.452 83.016C133.716 83.016 133.076 83.176 132.532 83.496C131.988 83.8053 131.567 84.2693 131.268 84.888C130.98 85.5067 130.836 86.264 130.836 87.16C130.836 87.832 130.922 88.4293 131.092 88.952C131.263 89.4747 131.503 89.912 131.812 90.264C132.132 90.616 132.511 90.8827 132.948 91.064C133.396 91.2347 133.898 91.32 134.452 91.32ZM148.257 93.144C147.233 93.144 146.358 92.9627 145.633 92.6C144.908 92.2267 144.353 91.704 143.969 91.032C143.585 90.3493 143.393 89.544 143.393 88.616V81.336H145.489V88.6C145.489 89.1867 145.601 89.6773 145.825 90.072C146.049 90.4667 146.369 90.7653 146.785 90.968C147.201 91.16 147.697 91.256 148.273 91.256C148.892 91.256 149.404 91.1493 149.809 90.936C150.214 90.7227 150.518 90.4187 150.721 90.024C150.934 89.6293 151.041 89.1547 151.041 88.6V81.336H153.137V88.616C153.137 89.5547 152.94 90.3653 152.545 91.048C152.15 91.72 151.59 92.2373 150.865 92.6C150.14 92.9627 149.27 93.144 148.257 93.144ZM156.988 93V81.336H162.588C163.238 81.336 163.809 81.4107 164.3 81.56C164.801 81.6987 165.217 81.912 165.548 82.2C165.878 82.4773 166.124 82.8187 166.284 83.224C166.454 83.6187 166.54 84.0827 166.54 84.616C166.54 85.3093 166.358 85.9067 165.996 86.408C165.644 86.9093 165.148 87.2453 164.508 87.416V87.528C165.116 87.6453 165.558 87.8907 165.836 88.264C166.124 88.6373 166.268 89.1493 166.268 89.8V91.688C166.268 91.9013 166.273 92.12 166.284 92.344C166.305 92.5573 166.364 92.776 166.46 93H164.332C164.268 92.8507 164.22 92.664 164.188 92.44C164.156 92.216 164.14 91.96 164.14 91.672V90.168C164.14 89.8053 164.086 89.5013 163.98 89.256C163.873 89.0107 163.681 88.824 163.404 88.696C163.126 88.5573 162.732 88.488 162.22 88.488H159.1V93H156.988ZM159.1 86.792H162.284C163.041 86.792 163.58 86.616 163.9 86.264C164.22 85.912 164.38 85.4587 164.38 84.904C164.38 84.4667 164.289 84.12 164.108 83.864C163.937 83.5973 163.692 83.4053 163.372 83.288C163.062 83.16 162.7 83.096 162.284 83.096H159.1V86.792ZM173.861 93.144C172.826 93.144 171.957 92.984 171.253 92.664C170.56 92.344 170.037 91.896 169.685 91.32C169.333 90.744 169.152 90.088 169.141 89.352H171.301C171.312 89.7893 171.408 90.168 171.589 90.488C171.781 90.808 172.069 91.0587 172.453 91.24C172.837 91.4213 173.333 91.512 173.941 91.512C174.666 91.512 175.248 91.3787 175.685 91.112C176.122 90.8347 176.341 90.4293 176.341 89.896C176.341 89.5867 176.293 89.3307 176.197 89.128C176.101 88.9147 175.941 88.7387 175.717 88.6C175.493 88.4613 175.194 88.344 174.821 88.248C174.458 88.152 174 88.056 173.445 87.96C172.784 87.8533 172.197 87.7147 171.685 87.544C171.184 87.3627 170.762 87.144 170.421 86.888C170.08 86.632 169.824 86.3227 169.653 85.96C169.482 85.5867 169.397 85.144 169.397 84.632C169.397 83.928 169.573 83.32 169.925 82.808C170.288 82.296 170.8 81.9013 171.461 81.624C172.122 81.336 172.912 81.192 173.829 81.192C174.736 81.192 175.509 81.336 176.149 81.624C176.8 81.912 177.301 82.3173 177.653 82.84C178.005 83.352 178.181 83.9493 178.181 84.632H176.053C176.032 84.216 175.92 83.8747 175.717 83.608C175.514 83.3307 175.242 83.128 174.901 83C174.57 82.872 174.186 82.808 173.749 82.808C173.301 82.808 172.912 82.872 172.581 83C172.261 83.128 172.016 83.3093 171.845 83.544C171.674 83.768 171.589 84.04 171.589 84.36C171.589 84.7547 171.685 85.0587 171.877 85.272C172.08 85.4747 172.4 85.6347 172.837 85.752C173.285 85.8693 173.861 85.9867 174.565 86.104C175.066 86.1893 175.552 86.296 176.021 86.424C176.501 86.552 176.928 86.744 177.301 87C177.685 87.2453 177.989 87.5867 178.213 88.024C178.437 88.4507 178.549 89.0053 178.549 89.688C178.549 90.3707 178.373 90.9733 178.021 91.496C177.669 92.0187 177.146 92.424 176.453 92.712C175.76 93 174.896 93.144 173.861 93.144Z" fill="white"/>
<mask id="path-9-inside-1_422_199" fill="white">
<rect x="37" y="106" width="60" height="60" rx="2"/>
</mask>
<rect x="37" y="106" width="60" height="60" rx="2" fill="#23272A" stroke="white" stroke-opacity="0.3" stroke-width="6" mask="url(#path-9-inside-1_422_199)"/>
<mask id="path-10-inside-2_422_199" fill="white">
<rect x="105" y="106" width="60" height="60" rx="2"/>
</mask>
<rect x="105" y="106" width="60" height="60" rx="2" fill="#5865F2" stroke="white" stroke-opacity="0.3" stroke-width="6" mask="url(#path-10-inside-2_422_199)"/>
<mask id="path-11-inside-3_422_199" fill="white">
<rect x="173" y="106" width="60" height="60" rx="2"/>
</mask>
<rect x="173" y="106" width="60" height="60" rx="2" fill="white" stroke="white" stroke-opacity="0.3" stroke-width="6" mask="url(#path-11-inside-3_422_199)"/>
<mask id="path-12-inside-4_422_199" fill="white">
<rect x="241" y="106" width="60" height="60" rx="2"/>
</mask>
<rect x="241" y="106" width="60" height="60" rx="2" fill="#F47B67" stroke="white" stroke-opacity="0.3" stroke-width="6" mask="url(#path-12-inside-4_422_199)"/>
<rect x="307" y="104" width="64" height="64" rx="6" fill="#2B2D31"/>
<rect x="307" y="104" width="64" height="64" rx="6" stroke="white" stroke-width="4"/>
<rect x="311" y="108" width="56" height="56" rx="3" fill="#F8A532"/>
<mask id="path-15-inside-5_422_199" fill="white">
<rect x="37" y="174" width="60" height="60" rx="2"/>
</mask>
<rect x="37" y="174" width="60" height="60" rx="2" fill="#FEE75C" stroke="white" stroke-opacity="0.3" stroke-width="6" mask="url(#path-15-inside-5_422_199)"/>
<mask id="path-16-inside-6_422_199" fill="white">
<rect x="105" y="174" width="60" height="60" rx="2"/>
</mask>
<rect x="105" y="174" width="60" height="60" rx="2" fill="#57F287" stroke="white" stroke-opacity="0.3" stroke-width="6" mask="url(#path-16-inside-6_422_199)"/>
<mask id="path-17-inside-7_422_199" fill="white">
<rect x="173" y="174" width="60" height="60" rx="2"/>
</mask>
<rect x="173" y="174" width="60" height="60" rx="2" fill="#48B784" stroke="white" stroke-opacity="0.3" stroke-width="6" mask="url(#path-17-inside-7_422_199)"/>
<mask id="path-18-inside-8_422_199" fill="white">
<rect x="241" y="174" width="60" height="60" rx="2"/>
</mask>
<rect x="241" y="174" width="60" height="60" rx="2" fill="#45DDC0" stroke="white" stroke-opacity="0.3" stroke-width="6" mask="url(#path-18-inside-8_422_199)"/>
<mask id="path-19-inside-9_422_199" fill="white">
<rect x="309" y="174" width="60" height="60" rx="2"/>
</mask>
<rect x="309" y="174" width="60" height="60" rx="2" fill="#99AAB5" stroke="white" stroke-opacity="0.3" stroke-width="6" mask="url(#path-19-inside-9_422_199)"/>
<mask id="path-20-inside-10_422_199" fill="white">
<rect x="37" y="242" width="60" height="60" rx="2"/>
</mask>
<rect x="37" y="242" width="60" height="60" rx="2" fill="#B7C2CE" stroke="white" stroke-opacity="0.3" stroke-width="6" mask="url(#path-20-inside-10_422_199)"/>
<mask id="path-21-inside-11_422_199" fill="white">
<rect x="105" y="242" width="60" height="60" rx="2"/>
</mask>
<rect x="105" y="242" width="60" height="60" rx="2" fill="#4187ED" stroke="white" stroke-opacity="0.3" stroke-width="6" mask="url(#path-21-inside-11_422_199)"/>
<path opacity="0.6" d="M38.344 343V331.336H43.192C43.8107 331.336 44.376 331.421 44.888 331.592C45.4 331.752 45.832 331.997 46.184 332.328C46.5467 332.648 46.824 333.043 47.016 333.512C47.2187 333.971 47.32 334.499 47.32 335.096C47.32 335.853 47.1547 336.52 46.824 337.096C46.4933 337.661 46.0187 338.104 45.4 338.424C44.792 338.744 44.056 338.904 43.192 338.904L40.248 338.888V337.224L42.84 337.24C43.288 337.24 43.6827 337.171 44.024 337.032C44.376 336.893 44.6533 336.675 44.856 336.376C45.0587 336.067 45.16 335.667 45.16 335.176C45.16 334.685 45.0533 334.291 44.84 333.992C44.6373 333.693 44.3653 333.48 44.024 333.352C43.6827 333.213 43.288 333.144 42.84 333.144H40.152L40.456 332.84V343H38.344ZM47.9839 343L51.9999 331.336H54.9759L58.9919 343H56.7999L55.9199 340.44H51.0559L50.1919 343H47.9839ZM51.5679 338.808H55.4239L54.2719 335.528L53.5359 333.272H53.4559L52.7039 335.528L51.5679 338.808ZM61.654 343V331.336H67.254C67.9047 331.336 68.4753 331.411 68.966 331.56C69.4673 331.699 69.8833 331.912 70.214 332.2C70.5447 332.477 70.79 332.819 70.95 333.224C71.1207 333.619 71.206 334.083 71.206 334.616C71.206 335.309 71.0247 335.907 70.662 336.408C70.31 336.909 69.814 337.245 69.174 337.416V337.528C69.782 337.645 70.2247 337.891 70.502 338.264C70.79 338.637 70.934 339.149 70.934 339.8V341.688C70.934 341.901 70.9393 342.12 70.95 342.344C70.9713 342.557 71.03 342.776 71.126 343H68.998C68.934 342.851 68.886 342.664 68.854 342.44C68.822 342.216 68.806 341.96 68.806 341.672V340.168C68.806 339.805 68.7527 339.501 68.646 339.256C68.5393 339.011 68.3473 338.824 68.07 338.696C67.7927 338.557 67.398 338.488 66.886 338.488H63.766V343H61.654ZM63.766 336.792H66.95C67.7073 336.792 68.246 336.616 68.566 336.264C68.886 335.912 69.046 335.459 69.046 334.904C69.046 334.467 68.9553 334.12 68.774 333.864C68.6033 333.597 68.358 333.405 68.038 333.288C67.7287 333.16 67.366 333.096 66.95 333.096H63.766V336.792ZM76.6923 343V333.176H73.1403V331.336H82.4203V333.176H78.8043V343H76.6923ZM85.1671 343V331.336H87.7271L93.1991 340.12H93.2951L93.2151 336.312V331.336H95.2471V343H92.8151L87.3591 334.36H87.2471L87.3111 337.848V343H85.1671ZM99.2128 343V331.336H107.533V333.16H100.861L101.325 332.696V336.664L100.861 336.2H106.749V337.912H100.861L101.325 337.448V341.64L100.861 341.176H107.565V343H99.2128ZM110.977 343V331.336H116.577C117.228 331.336 117.798 331.411 118.289 331.56C118.79 331.699 119.206 331.912 119.537 332.2C119.868 332.477 120.113 332.819 120.273 333.224C120.444 333.619 120.529 334.083 120.529 334.616C120.529 335.309 120.348 335.907 119.985 336.408C119.633 336.909 119.137 337.245 118.497 337.416V337.528C119.105 337.645 119.548 337.891 119.825 338.264C120.113 338.637 120.257 339.149 120.257 339.8V341.688C120.257 341.901 120.262 342.12 120.273 342.344C120.294 342.557 120.353 342.776 120.449 343H118.321C118.257 342.851 118.209 342.664 118.177 342.44C118.145 342.216 118.129 341.96 118.129 341.672V340.168C118.129 339.805 118.076 339.501 117.969 339.256C117.862 339.011 117.67 338.824 117.393 338.696C117.116 338.557 116.721 338.488 116.209 338.488H113.089V343H110.977ZM113.089 336.792H116.273C117.03 336.792 117.569 336.616 117.889 336.264C118.209 335.912 118.369 335.459 118.369 334.904C118.369 334.467 118.278 334.12 118.097 333.864C117.926 333.597 117.681 333.405 117.361 333.288C117.052 333.16 116.689 333.096 116.273 333.096H113.089V336.792ZM133.671 343.144C132.807 343.144 132.018 343.011 131.303 342.744C130.599 342.467 129.991 342.072 129.479 341.56C128.967 341.037 128.572 340.408 128.295 339.672C128.018 338.936 127.879 338.099 127.879 337.16C127.879 336.232 128.018 335.4 128.295 334.664C128.572 333.928 128.967 333.304 129.479 332.792C129.991 332.269 130.599 331.875 131.303 331.608C132.018 331.331 132.807 331.192 133.671 331.192C134.652 331.192 135.527 331.363 136.295 331.704C137.063 332.045 137.682 332.525 138.151 333.144C138.631 333.752 138.93 334.472 139.047 335.304H136.887C136.791 334.845 136.594 334.445 136.295 334.104C136.007 333.763 135.639 333.496 135.191 333.304C134.754 333.112 134.247 333.016 133.671 333.016C132.935 333.016 132.295 333.176 131.751 333.496C131.218 333.805 130.802 334.269 130.503 334.888C130.215 335.507 130.071 336.264 130.071 337.16C130.071 337.843 130.156 338.445 130.327 338.968C130.498 339.48 130.738 339.912 131.047 340.264C131.356 340.616 131.73 340.883 132.167 341.064C132.615 341.235 133.116 341.32 133.671 341.32C134.236 341.32 134.743 341.224 135.191 341.032C135.639 340.84 136.012 340.573 136.311 340.232C136.61 339.88 136.802 339.475 136.887 339.016H139.047C138.951 339.848 138.658 340.573 138.167 341.192C137.687 341.811 137.063 342.291 136.295 342.632C135.527 342.973 134.652 343.144 133.671 343.144ZM147.529 343.144C146.655 343.144 145.86 343.011 145.145 342.744C144.441 342.467 143.833 342.072 143.321 341.56C142.809 341.048 142.415 340.424 142.137 339.688C141.86 338.941 141.721 338.099 141.721 337.16C141.721 336.221 141.86 335.384 142.137 334.648C142.415 333.912 142.809 333.288 143.321 332.776C143.833 332.264 144.441 331.875 145.145 331.608C145.86 331.331 146.655 331.192 147.529 331.192C148.404 331.192 149.193 331.331 149.897 331.608C150.612 331.875 151.225 332.269 151.737 332.792C152.26 333.304 152.655 333.928 152.921 334.664C153.199 335.389 153.337 336.221 153.337 337.16C153.337 338.099 153.199 338.941 152.921 339.688C152.644 340.424 152.249 341.048 151.737 341.56C151.225 342.072 150.612 342.467 149.897 342.744C149.193 343.011 148.404 343.144 147.529 343.144ZM147.529 341.32C148.276 341.32 148.921 341.16 149.465 340.84C150.009 340.52 150.425 340.051 150.713 339.432C151.012 338.813 151.161 338.056 151.161 337.16C151.161 336.488 151.076 335.896 150.905 335.384C150.735 334.872 150.489 334.44 150.169 334.088C149.86 333.736 149.481 333.469 149.033 333.288C148.585 333.107 148.084 333.016 147.529 333.016C146.793 333.016 146.153 333.176 145.609 333.496C145.065 333.805 144.644 334.269 144.345 334.888C144.057 335.507 143.913 336.264 143.913 337.16C143.913 337.832 143.999 338.429 144.169 338.952C144.34 339.475 144.58 339.912 144.889 340.264C145.209 340.616 145.588 340.883 146.025 341.064C146.473 341.235 146.975 341.32 147.529 341.32ZM156.566 343V331.336H158.678V341.512L158.326 341.112H164.054V343H156.566ZM171.402 343.144C170.527 343.144 169.733 343.011 169.018 342.744C168.314 342.467 167.706 342.072 167.194 341.56C166.682 341.048 166.287 340.424 166.01 339.688C165.733 338.941 165.594 338.099 165.594 337.16C165.594 336.221 165.733 335.384 166.01 334.648C166.287 333.912 166.682 333.288 167.194 332.776C167.706 332.264 168.314 331.875 169.018 331.608C169.733 331.331 170.527 331.192 171.402 331.192C172.277 331.192 173.066 331.331 173.77 331.608C174.485 331.875 175.098 332.269 175.61 332.792C176.133 333.304 176.527 333.928 176.794 334.664C177.071 335.389 177.21 336.221 177.21 337.16C177.21 338.099 177.071 338.941 176.794 339.688C176.517 340.424 176.122 341.048 175.61 341.56C175.098 342.072 174.485 342.467 173.77 342.744C173.066 343.011 172.277 343.144 171.402 343.144ZM171.402 341.32C172.149 341.32 172.794 341.16 173.338 340.84C173.882 340.52 174.298 340.051 174.586 339.432C174.885 338.813 175.034 338.056 175.034 337.16C175.034 336.488 174.949 335.896 174.778 335.384C174.607 334.872 174.362 334.44 174.042 334.088C173.733 333.736 173.354 333.469 172.906 333.288C172.458 333.107 171.957 333.016 171.402 333.016C170.666 333.016 170.026 333.176 169.482 333.496C168.938 333.805 168.517 334.269 168.218 334.888C167.93 335.507 167.786 336.264 167.786 337.16C167.786 337.832 167.871 338.429 168.042 338.952C168.213 339.475 168.453 339.912 168.762 340.264C169.082 340.616 169.461 340.883 169.898 341.064C170.346 341.235 170.847 341.32 171.402 341.32ZM185.206 343.144C184.182 343.144 183.308 342.963 182.582 342.6C181.857 342.227 181.302 341.704 180.918 341.032C180.534 340.349 180.342 339.544 180.342 338.616V331.336H182.438V338.6C182.438 339.187 182.55 339.677 182.774 340.072C182.998 340.467 183.318 340.765 183.734 340.968C184.15 341.16 184.646 341.256 185.222 341.256C185.841 341.256 186.353 341.149 186.758 340.936C187.164 340.723 187.468 340.419 187.67 340.024C187.884 339.629 187.99 339.155 187.99 338.6V331.336H190.086V338.616C190.086 339.555 189.889 340.365 189.494 341.048C189.1 341.72 188.54 342.237 187.814 342.6C187.089 342.963 186.22 343.144 185.206 343.144ZM193.937 343V331.336H199.537C200.188 331.336 200.758 331.411 201.249 331.56C201.75 331.699 202.166 331.912 202.497 332.2C202.828 332.477 203.073 332.819 203.233 333.224C203.404 333.619 203.489 334.083 203.489 334.616C203.489 335.309 203.308 335.907 202.945 336.408C202.593 336.909 202.097 337.245 201.457 337.416V337.528C202.065 337.645 202.508 337.891 202.785 338.264C203.073 338.637 203.217 339.149 203.217 339.8V341.688C203.217 341.901 203.222 342.12 203.233 342.344C203.254 342.557 203.313 342.776 203.409 343H201.281C201.217 342.851 201.169 342.664 201.137 342.44C201.105 342.216 201.089 341.96 201.089 341.672V340.168C201.089 339.805 201.036 339.501 200.929 339.256C200.822 339.011 200.63 338.824 200.353 338.696C200.076 338.557 199.681 338.488 199.169 338.488H196.049V343H193.937ZM196.049 336.792H199.233C199.99 336.792 200.529 336.616 200.849 336.264C201.169 335.912 201.329 335.459 201.329 334.904C201.329 334.467 201.238 334.12 201.057 333.864C200.886 333.597 200.641 333.405 200.321 333.288C200.012 333.16 199.649 333.096 199.233 333.096H196.049V336.792ZM210.81 343.144C209.776 343.144 208.906 342.984 208.202 342.664C207.509 342.344 206.986 341.896 206.634 341.32C206.282 340.744 206.101 340.088 206.09 339.352H208.25C208.261 339.789 208.357 340.168 208.538 340.488C208.73 340.808 209.018 341.059 209.402 341.24C209.786 341.421 210.282 341.512 210.89 341.512C211.616 341.512 212.197 341.379 212.634 341.112C213.072 340.835 213.29 340.429 213.29 339.896C213.29 339.587 213.242 339.331 213.146 339.128C213.05 338.915 212.89 338.739 212.666 338.6C212.442 338.461 212.144 338.344 211.77 338.248C211.408 338.152 210.949 338.056 210.394 337.96C209.733 337.853 209.146 337.715 208.634 337.544C208.133 337.363 207.712 337.144 207.37 336.888C207.029 336.632 206.773 336.323 206.602 335.96C206.432 335.587 206.346 335.144 206.346 334.632C206.346 333.928 206.522 333.32 206.874 332.808C207.237 332.296 207.749 331.901 208.41 331.624C209.072 331.336 209.861 331.192 210.778 331.192C211.685 331.192 212.458 331.336 213.098 331.624C213.749 331.912 214.25 332.317 214.602 332.84C214.954 333.352 215.13 333.949 215.13 334.632H213.002C212.981 334.216 212.869 333.875 212.666 333.608C212.464 333.331 212.192 333.128 211.85 333C211.52 332.872 211.136 332.808 210.698 332.808C210.25 332.808 209.861 332.872 209.53 333C209.21 333.128 208.965 333.309 208.794 333.544C208.624 333.768 208.538 334.04 208.538 334.36C208.538 334.755 208.634 335.059 208.826 335.272C209.029 335.475 209.349 335.635 209.786 335.752C210.234 335.869 210.81 335.987 211.514 336.104C212.016 336.189 212.501 336.296 212.97 336.424C213.45 336.552 213.877 336.744 214.25 337C214.634 337.245 214.938 337.587 215.162 338.024C215.386 338.451 215.498 339.005 215.498 339.688C215.498 340.371 215.322 340.973 214.97 341.496C214.618 342.019 214.096 342.424 213.402 342.712C212.709 343 211.845 343.144 210.81 343.144Z" fill="white"/>
<rect x="37" y="356" width="60" height="60" rx="3" fill="#F67220"/>
<rect x="38.5" y="357.5" width="57" height="57" rx="1.5" stroke="white" stroke-opacity="0.3" stroke-width="3"/>
<rect x="101" y="356" width="60" height="60" rx="3" fill="#FF801D"/>
<rect x="102.5" y="357.5" width="57" height="57" rx="1.5" stroke="white" stroke-opacity="0.3" stroke-width="3"/>
<rect x="165" y="356" width="60" height="60" rx="3" fill="#DDB57E"/>
<rect x="166.5" y="357.5" width="57" height="57" rx="1.5" stroke="white" stroke-opacity="0.3" stroke-width="3"/>
<rect x="229" y="356" width="60" height="60" rx="3" fill="#EEC147"/>
<rect x="230.5" y="357.5" width="57" height="57" rx="1.5" stroke="white" stroke-opacity="0.3" stroke-width="3"/>
<rect x="293" y="356" width="60" height="60" rx="3" fill="#C3B489"/>
<rect x="294.5" y="357.5" width="57" height="57" rx="1.5" stroke="white" stroke-opacity="0.3" stroke-width="3"/>
<rect x="37" y="420" width="60" height="60" rx="3" fill="#FFCE00"/>
<rect x="38.5" y="421.5" width="57" height="57" rx="1.5" stroke="white" stroke-opacity="0.3" stroke-width="3"/>
<rect x="101" y="420" width="60" height="60" rx="3" fill="#5B9042"/>
<rect x="102.5" y="421.5" width="57" height="57" rx="1.5" stroke="white" stroke-opacity="0.3" stroke-width="3"/>
<rect x="165" y="420" width="60" height="60" rx="3" fill="#1DB954"/>
<rect x="166.5" y="421.5" width="57" height="57" rx="1.5" stroke="white" stroke-opacity="0.3" stroke-width="3"/>
<rect x="229" y="420" width="60" height="60" rx="3" fill="#17A167"/>
<rect x="230.5" y="421.5" width="57" height="57" rx="1.5" stroke="white" stroke-opacity="0.3" stroke-width="3"/>
<rect x="293" y="420" width="60" height="60" rx="3" fill="#288282"/>
<rect x="294.5" y="421.5" width="57" height="57" rx="1.5" stroke="white" stroke-opacity="0.3" stroke-width="3"/>
<rect x="37" y="484" width="60" height="60" rx="3" fill="#2CD6F7"/>
<rect x="38.5" y="485.5" width="57" height="57" rx="1.5" stroke="white" stroke-opacity="0.3" stroke-width="3"/>
<rect x="101" y="484" width="60" height="60" rx="3" fill="#208BD2"/>
<rect x="102.5" y="485.5" width="57" height="57" rx="1.5" stroke="white" stroke-opacity="0.3" stroke-width="3"/>
<rect x="165" y="484" width="60" height="60" rx="3" fill="#6090D8"/>
<rect x="166.5" y="485.5" width="57" height="57" rx="1.5" stroke="white" stroke-opacity="0.3" stroke-width="3"/>
<rect x="229" y="484" width="60" height="60" rx="3" fill="#5865F2"/>
<rect x="230.5" y="485.5" width="57" height="57" rx="1.5" stroke="white" stroke-opacity="0.3" stroke-width="3"/>
<rect x="293" y="484" width="60" height="60" rx="3" fill="#9933FF"/>
<rect x="294.5" y="485.5" width="57" height="57" rx="1.5" stroke="white" stroke-opacity="0.3" stroke-width="3"/>
</g>
<rect x="21" y="508" width="364" height="62" rx="8" fill="#2B2D31"/>
<path d="M38.518 547V530.962H42.984V537.474L42.5 536.99H49.584L49.1 537.474V530.962H53.566V547H49.1V540.29L49.584 540.774H42.5L42.984 540.29V547H38.518ZM56.5418 550.674V547.242H58.0598C58.3678 547.242 58.6245 547.205 58.8298 547.132C59.0498 547.059 59.2332 546.941 59.3798 546.78C59.5265 546.619 59.6438 546.413 59.7318 546.164L60.1498 545.02V546.868L55.3098 535.032H59.9298L61.5798 540.62L61.8438 541.742H61.9538L62.1958 540.62L63.7358 535.032H68.2458L63.9118 547.088C63.5745 548.056 63.1565 548.797 62.6578 549.31C62.1592 549.838 61.5945 550.197 60.9638 550.388C60.3332 550.579 59.6438 550.674 58.8958 550.674H56.5418ZM69.6514 550.674V535.032H73.6994L73.8534 536.858H74.0734C74.3374 536.242 74.7774 535.751 75.3934 535.384C76.0094 535.003 76.7428 534.812 77.5934 534.812C78.2974 534.812 78.9354 534.937 79.5074 535.186C80.0794 535.435 80.5708 535.817 80.9814 536.33C81.4068 536.843 81.7294 537.489 81.9494 538.266C82.1694 539.043 82.2794 539.96 82.2794 541.016C82.2794 542.424 82.0814 543.59 81.6854 544.514C81.3041 545.423 80.7614 546.105 80.0574 546.56C79.3534 547 78.5321 547.22 77.5934 547.22C77.0361 547.22 76.5228 547.139 76.0534 546.978C75.5841 546.802 75.1808 546.56 74.8434 546.252C74.5061 545.944 74.2494 545.585 74.0734 545.174H73.8534V550.674H69.6514ZM75.9434 543.854C76.3541 543.854 76.7134 543.759 77.0214 543.568C77.3294 543.377 77.5641 543.077 77.7254 542.666C77.9014 542.241 77.9894 541.691 77.9894 541.016C77.9894 540.327 77.9014 539.777 77.7254 539.366C77.5641 538.955 77.3294 538.655 77.0214 538.464C76.7134 538.273 76.3541 538.178 75.9434 538.178C75.4594 538.178 75.0634 538.295 74.7554 538.53C74.4621 538.75 74.2421 539.036 74.0954 539.388C73.9634 539.74 73.8974 540.121 73.8974 540.532V541.5C73.8974 541.808 73.9341 542.101 74.0074 542.38C74.0808 542.659 74.1981 542.908 74.3594 543.128C74.5208 543.348 74.7334 543.524 74.9974 543.656C75.2614 543.788 75.5768 543.854 75.9434 543.854ZM89.9813 547.22C88.676 547.22 87.5613 546.971 86.6373 546.472C85.728 545.959 85.0313 545.247 84.5473 544.338C84.0633 543.414 83.8213 542.343 83.8213 541.126C83.8213 539.821 84.0707 538.699 84.5693 537.76C85.068 536.807 85.7647 536.081 86.6593 535.582C87.5687 535.069 88.6247 534.812 89.8273 534.812C91.2793 534.812 92.4673 535.127 93.3913 535.758C94.3153 536.374 94.9753 537.225 95.3713 538.31C95.782 539.395 95.914 540.627 95.7673 542.006H87.9573C87.9427 542.446 88.016 542.827 88.1773 543.15C88.3533 543.458 88.5953 543.693 88.9033 543.854C89.2113 544.015 89.5707 544.096 89.9813 544.096C90.4213 544.096 90.8027 544.008 91.1253 543.832C91.448 543.641 91.6533 543.399 91.7413 543.106H95.6793C95.5913 543.927 95.2907 544.646 94.7773 545.262C94.2787 545.878 93.6187 546.362 92.7973 546.714C91.976 547.051 91.0373 547.22 89.9813 547.22ZM87.9573 539.85L87.6053 539.498H92.0053L91.6313 539.828C91.6607 539.417 91.602 539.073 91.4553 538.794C91.3087 538.515 91.096 538.303 90.8173 538.156C90.5387 537.995 90.2087 537.914 89.8273 537.914C89.4313 537.914 89.0867 537.995 88.7933 538.156C88.5147 538.317 88.302 538.545 88.1553 538.838C88.0087 539.131 87.9427 539.469 87.9573 539.85ZM102.647 547.22C101.532 547.22 100.564 547.051 99.7428 546.714C98.9215 546.377 98.2835 545.907 97.8288 545.306C97.3888 544.69 97.1688 543.979 97.1688 543.172H101.305C101.319 543.583 101.459 543.876 101.723 544.052C102.001 544.228 102.346 544.316 102.757 544.316C103.167 544.316 103.468 544.25 103.659 544.118C103.849 543.971 103.945 543.781 103.945 543.546C103.945 543.326 103.886 543.165 103.769 543.062C103.651 542.959 103.461 542.879 103.197 542.82C102.933 542.747 102.573 542.681 102.119 542.622C101.048 542.461 100.168 542.241 99.4788 541.962C98.7895 541.683 98.2761 541.295 97.9388 540.796C97.6161 540.283 97.4548 539.63 97.4548 538.838C97.4548 538.031 97.6748 537.327 98.1148 536.726C98.5695 536.125 99.2001 535.655 100.007 535.318C100.813 534.981 101.752 534.812 102.823 534.812C103.82 534.812 104.7 534.973 105.463 535.296C106.225 535.619 106.827 536.066 107.267 536.638C107.707 537.21 107.941 537.877 107.971 538.64H103.835C103.835 538.435 103.791 538.266 103.703 538.134C103.615 537.987 103.483 537.885 103.307 537.826C103.145 537.753 102.94 537.716 102.691 537.716C102.383 537.716 102.133 537.782 101.943 537.914C101.752 538.031 101.657 538.215 101.657 538.464C101.657 538.669 101.723 538.831 101.855 538.948C102.001 539.051 102.236 539.139 102.559 539.212C102.896 539.285 103.336 539.359 103.879 539.432C104.656 539.535 105.316 539.681 105.859 539.872C106.416 540.048 106.863 540.29 107.201 540.598C107.553 540.891 107.809 541.251 107.971 541.676C108.132 542.101 108.213 542.6 108.213 543.172C108.213 544.463 107.699 545.46 106.673 546.164C105.661 546.868 104.319 547.22 102.647 547.22ZM117.996 550.674V545.174H117.776C117.512 545.79 117.072 546.289 116.456 546.67C115.84 547.037 115.107 547.22 114.256 547.22C113.552 547.22 112.914 547.095 112.342 546.846C111.77 546.597 111.271 546.215 110.846 545.702C110.435 545.189 110.12 544.543 109.9 543.766C109.68 542.989 109.57 542.072 109.57 541.016C109.57 539.608 109.761 538.449 110.142 537.54C110.538 536.616 111.088 535.934 111.792 535.494C112.496 535.039 113.317 534.812 114.256 534.812C114.828 534.812 115.341 534.9 115.796 535.076C116.265 535.237 116.669 535.472 117.006 535.78C117.343 536.088 117.6 536.447 117.776 536.858H117.996L118.15 535.032H122.198V550.674H117.996ZM115.906 543.854C116.405 543.854 116.801 543.744 117.094 543.524C117.387 543.289 117.6 542.996 117.732 542.644C117.879 542.277 117.952 541.896 117.952 541.5V540.532C117.952 540.121 117.879 539.74 117.732 539.388C117.6 539.036 117.387 538.75 117.094 538.53C116.801 538.295 116.405 538.178 115.906 538.178C115.495 538.178 115.136 538.273 114.828 538.464C114.52 538.655 114.278 538.955 114.102 539.366C113.941 539.777 113.86 540.327 113.86 541.016C113.86 541.691 113.941 542.241 114.102 542.666C114.278 543.077 114.52 543.377 114.828 543.568C115.136 543.759 115.495 543.854 115.906 543.854ZM128.915 547.22C127.976 547.22 127.192 547.044 126.561 546.692C125.93 546.325 125.461 545.797 125.153 545.108C124.845 544.404 124.691 543.561 124.691 542.578V535.032H128.893V541.434C128.893 541.962 128.952 542.402 129.069 542.754C129.186 543.106 129.37 543.377 129.619 543.568C129.883 543.744 130.22 543.832 130.631 543.832C131.071 543.832 131.43 543.729 131.709 543.524C132.002 543.319 132.222 543.062 132.369 542.754C132.516 542.446 132.589 542.131 132.589 541.808V535.032H136.791V547H132.743L132.589 545.042H132.413C132.134 545.761 131.68 546.303 131.049 546.67C130.418 547.037 129.707 547.22 128.915 547.22ZM143.12 547.22C142.416 547.22 141.778 547.095 141.206 546.846C140.634 546.597 140.135 546.215 139.71 545.702C139.299 545.189 138.984 544.543 138.764 543.766C138.544 542.989 138.434 542.072 138.434 541.016C138.434 539.608 138.624 538.449 139.006 537.54C139.402 536.616 139.952 535.934 140.656 535.494C141.36 535.039 142.181 534.812 143.12 534.812C143.692 534.812 144.205 534.9 144.66 535.076C145.129 535.237 145.532 535.472 145.87 535.78C146.207 536.088 146.464 536.447 146.64 536.858H146.86L147.014 535.032H151.062V547H146.86V545.174H146.64C146.376 545.79 145.936 546.289 145.32 546.67C144.704 547.037 143.97 547.22 143.12 547.22ZM144.77 543.854C145.268 543.854 145.664 543.744 145.958 543.524C146.251 543.289 146.464 542.996 146.596 542.644C146.742 542.277 146.816 541.896 146.816 541.5V540.532C146.816 540.121 146.742 539.74 146.596 539.388C146.464 539.036 146.251 538.75 145.958 538.53C145.664 538.295 145.268 538.178 144.77 538.178C144.359 538.178 144 538.273 143.692 538.464C143.384 538.655 143.142 538.955 142.966 539.366C142.804 539.777 142.724 540.327 142.724 541.016C142.724 541.691 142.804 542.241 142.966 542.666C143.142 543.077 143.384 543.377 143.692 543.568C144 543.759 144.359 543.854 144.77 543.854ZM157.498 547.22C156.794 547.22 156.156 547.095 155.584 546.846C155.012 546.597 154.513 546.215 154.088 545.702C153.677 545.189 153.362 544.543 153.142 543.766C152.922 542.989 152.812 542.072 152.812 541.016C152.812 539.608 153.003 538.449 153.384 537.54C153.78 536.616 154.33 535.934 155.034 535.494C155.738 535.039 156.559 534.812 157.498 534.812C158.07 534.812 158.583 534.9 159.038 535.076C159.507 535.237 159.911 535.472 160.248 535.78C160.585 536.088 160.842 536.447 161.018 536.858H161.238V530.962H165.44V547H161.392L161.238 545.174H161.018C160.754 545.79 160.314 546.289 159.698 546.67C159.082 547.037 158.349 547.22 157.498 547.22ZM159.148 543.854C159.647 543.854 160.043 543.744 160.336 543.524C160.629 543.289 160.842 542.996 160.974 542.644C161.121 542.277 161.194 541.896 161.194 541.5V540.532C161.194 540.224 161.157 539.931 161.084 539.652C161.011 539.373 160.893 539.124 160.732 538.904C160.571 538.684 160.358 538.508 160.094 538.376C159.83 538.244 159.515 538.178 159.148 538.178C158.737 538.178 158.378 538.273 158.07 538.464C157.762 538.655 157.52 538.955 157.344 539.366C157.183 539.777 157.102 540.327 157.102 541.016C157.102 541.691 157.183 542.241 157.344 542.666C157.52 543.077 157.762 543.377 158.07 543.568C158.378 543.759 158.737 543.854 159.148 543.854ZM177.484 547V541.082L171.544 530.962H176.626L179.618 536.726H179.794L182.852 530.962H187.912L181.95 541.082V547H177.484ZM192.288 547.22C190.983 547.22 189.868 546.971 188.944 546.472C188.035 545.959 187.338 545.247 186.854 544.338C186.37 543.414 186.128 542.343 186.128 541.126C186.128 539.821 186.378 538.699 186.876 537.76C187.375 536.807 188.072 536.081 188.966 535.582C189.876 535.069 190.932 534.812 192.134 534.812C193.586 534.812 194.774 535.127 195.698 535.758C196.622 536.374 197.282 537.225 197.678 538.31C198.089 539.395 198.221 540.627 198.074 542.006H190.264C190.25 542.446 190.323 542.827 190.484 543.15C190.66 543.458 190.902 543.693 191.21 543.854C191.518 544.015 191.878 544.096 192.288 544.096C192.728 544.096 193.11 544.008 193.432 543.832C193.755 543.641 193.96 543.399 194.048 543.106H197.986C197.898 543.927 197.598 544.646 197.084 545.262C196.586 545.878 195.926 546.362 195.104 546.714C194.283 547.051 193.344 547.22 192.288 547.22ZM190.264 539.85L189.912 539.498H194.312L193.938 539.828C193.968 539.417 193.909 539.073 193.762 538.794C193.616 538.515 193.403 538.303 193.124 538.156C192.846 537.995 192.516 537.914 192.134 537.914C191.738 537.914 191.394 537.995 191.1 538.156C190.822 538.317 190.609 538.545 190.462 538.838C190.316 539.131 190.25 539.469 190.264 539.85ZM200.092 547V530.962H204.294V547H200.092ZM206.886 547V530.962H211.088V547H206.886ZM219.18 547.22C218.256 547.22 217.42 547.088 216.672 546.824C215.924 546.545 215.279 546.142 214.736 545.614C214.193 545.071 213.775 544.419 213.482 543.656C213.189 542.879 213.042 541.999 213.042 541.016C213.042 539.769 213.277 538.684 213.746 537.76C214.23 536.836 214.927 536.117 215.836 535.604C216.76 535.076 217.875 534.812 219.18 534.812C220.104 534.812 220.94 534.951 221.688 535.23C222.436 535.494 223.081 535.897 223.624 536.44C224.167 536.968 224.585 537.613 224.878 538.376C225.171 539.139 225.318 540.019 225.318 541.016C225.318 542.248 225.076 543.333 224.592 544.272C224.123 545.196 223.433 545.922 222.524 546.45C221.615 546.963 220.5 547.22 219.18 547.22ZM219.18 543.854C219.561 543.854 219.891 543.759 220.17 543.568C220.463 543.377 220.683 543.077 220.83 542.666C220.991 542.241 221.072 541.691 221.072 541.016C221.072 540.503 221.028 540.07 220.94 539.718C220.852 539.351 220.72 539.058 220.544 538.838C220.383 538.603 220.185 538.435 219.95 538.332C219.73 538.229 219.473 538.178 219.18 538.178C218.799 538.178 218.461 538.273 218.168 538.464C217.889 538.655 217.669 538.955 217.508 539.366C217.361 539.777 217.288 540.327 217.288 541.016C217.288 541.529 217.332 541.969 217.42 542.336C217.508 542.688 217.633 542.981 217.794 543.216C217.97 543.436 218.175 543.597 218.41 543.7C218.645 543.803 218.901 543.854 219.18 543.854ZM228.61 547L225.97 535.032H230.326L231.69 542.798H231.866L233.032 535.032H237.564L238.664 542.864H238.774L240.226 535.032H244.384L241.7 547H236.2L235.166 540.4H235.034L234 547H228.61Z" fill="white"/>
<path opacity="0.6" d="M316.509 545V528.17H318.588V545H316.509ZM323.912 545V537.465C323.912 536.886 323.82 536.424 323.637 536.079C323.453 535.734 323.204 535.492 322.889 535.353C322.581 535.214 322.221 535.144 321.811 535.144C321.092 535.144 320.436 535.331 319.842 535.705C319.255 536.072 318.727 536.585 318.258 537.245V535.32H318.852C319.189 534.953 319.537 534.634 319.897 534.363C320.263 534.092 320.685 533.872 321.162 533.703C321.646 533.527 322.181 533.439 322.768 533.439C323.442 533.439 324.018 533.564 324.495 533.813C324.979 534.055 325.349 534.433 325.606 534.946C325.862 535.459 325.991 536.116 325.991 536.915V545H323.912ZM332.23 549.257H330.151V533.703H331.911L332.131 535.694H332.23V549.257ZM340.403 539.335C340.403 540.56 340.224 541.616 339.864 542.503C339.512 543.39 338.995 544.072 338.313 544.549C337.639 545.026 336.828 545.264 335.882 545.264C335.098 545.264 334.416 545.106 333.836 544.791C333.257 544.476 332.769 544.047 332.373 543.504H331.878V541.821C332.377 542.422 332.89 542.855 333.418 543.119C333.954 543.376 334.511 543.504 335.09 543.504C335.772 543.504 336.348 543.35 336.817 543.042C337.287 542.734 337.642 542.272 337.884 541.656C338.134 541.033 338.258 540.259 338.258 539.335C338.258 538.418 338.137 537.656 337.895 537.047C337.661 536.438 337.309 535.98 336.839 535.672C336.377 535.364 335.805 535.21 335.123 535.21C334.537 535.21 333.979 535.338 333.451 535.595C332.923 535.852 332.399 536.277 331.878 536.871V535.199H332.362C332.81 534.649 333.327 534.22 333.913 533.912C334.507 533.597 335.193 533.439 335.97 533.439C336.916 533.439 337.719 533.681 338.379 534.165C339.039 534.642 339.542 535.32 339.886 536.2C340.231 537.08 340.403 538.125 340.403 539.335ZM348.579 533.439C349.584 533.439 350.434 533.564 351.131 533.813C351.835 534.055 352.374 534.425 352.748 534.924C353.129 535.423 353.335 536.05 353.364 536.805L351.472 536.937C351.399 536.292 351.109 535.808 350.603 535.485C350.104 535.155 349.382 534.99 348.436 534.99C347.549 534.99 346.859 535.122 346.368 535.386C345.884 535.65 345.642 536.042 345.642 536.563C345.642 536.856 345.73 537.106 345.906 537.311C346.082 537.509 346.361 537.681 346.742 537.828C347.123 537.975 347.666 538.129 348.37 538.29C348.737 538.371 348.971 538.422 349.074 538.444C350.167 538.671 351.021 538.91 351.637 539.159C352.253 539.408 352.715 539.738 353.023 540.149C353.338 540.552 353.496 541.077 353.496 541.722C353.496 542.441 353.305 543.064 352.924 543.592C352.55 544.12 351.989 544.531 351.241 544.824C350.5 545.11 349.584 545.253 348.491 545.253C347.42 545.253 346.515 545.143 345.774 544.923C345.041 544.696 344.45 544.325 344.003 543.812C343.556 543.291 343.248 542.595 343.079 541.722L344.993 541.48C345.162 542.103 345.418 542.573 345.763 542.888C346.108 543.203 346.496 543.409 346.929 543.504C347.369 543.599 347.923 543.647 348.59 543.647C349.235 543.647 349.771 543.57 350.196 543.416C350.621 543.262 350.929 543.06 351.12 542.811C351.318 542.554 351.417 542.268 351.417 541.953C351.417 541.638 351.311 541.377 351.098 541.172C350.885 540.967 350.548 540.787 350.086 540.633C349.624 540.472 348.942 540.296 348.04 540.105L347.787 540.061C346.834 539.863 346.056 539.628 345.455 539.357C344.861 539.086 344.41 538.741 344.102 538.323C343.801 537.905 343.651 537.381 343.651 536.75C343.651 535.709 344.058 534.898 344.872 534.319C345.693 533.732 346.929 533.439 348.579 533.439ZM364.938 535.694L365.158 533.703H366.918V549.257H364.839V535.694H364.938ZM356.666 539.368C356.666 538.143 356.842 537.087 357.194 536.2C357.554 535.313 358.071 534.631 358.745 534.154C359.427 533.677 360.241 533.439 361.187 533.439C361.972 533.439 362.654 533.597 363.233 533.912C363.813 534.22 364.3 534.645 364.696 535.188H365.191V536.871C364.693 536.277 364.176 535.852 363.64 535.595C363.112 535.331 362.559 535.199 361.979 535.199C361.297 535.199 360.722 535.353 360.252 535.661C359.783 535.969 359.424 536.435 359.174 537.058C358.932 537.674 358.811 538.444 358.811 539.368C358.811 540.277 358.929 541.04 359.163 541.656C359.405 542.265 359.757 542.723 360.219 543.031C360.689 543.339 361.264 543.493 361.946 543.493C362.533 543.493 363.09 543.365 363.618 543.108C364.146 542.851 364.671 542.422 365.191 541.821V543.504H364.707C364.26 544.047 363.739 544.476 363.145 544.791C362.559 545.106 361.877 545.264 361.099 545.264C360.153 545.264 359.35 545.026 358.69 544.549C358.03 544.065 357.528 543.383 357.183 542.503C356.839 541.616 356.666 540.571 356.666 539.368Z" fill="white"/>
<path opacity="0.6" d="M38.408 595V583.336H43.816C44.5733 583.336 45.2133 583.464 45.736 583.72C46.2587 583.965 46.6533 584.312 46.92 584.76C47.1867 585.197 47.32 585.72 47.32 586.328C47.32 586.744 47.2507 587.128 47.112 587.48C46.9733 587.821 46.7653 588.12 46.488 588.376C46.2107 588.632 45.864 588.813 45.448 588.92V589C45.928 589.096 46.328 589.272 46.648 589.528C46.968 589.784 47.208 590.104 47.368 590.488C47.5387 590.861 47.624 591.272 47.624 591.72C47.624 592.424 47.464 593.021 47.144 593.512C46.824 593.992 46.3653 594.36 45.768 594.616C45.1707 594.872 44.4507 595 43.608 595H38.408ZM40.12 593.624H43.448C44.2587 593.624 44.8613 593.437 45.256 593.064C45.6507 592.691 45.848 592.211 45.848 591.624C45.848 590.995 45.6507 590.515 45.256 590.184C44.8613 589.853 44.3173 589.688 43.624 589.688H40.12V593.624ZM40.12 588.36H43.544C44.0027 588.36 44.3813 588.285 44.68 588.136C44.9787 587.987 45.2027 587.779 45.352 587.512C45.5013 587.235 45.576 586.92 45.576 586.568C45.576 585.96 45.3733 585.501 44.968 585.192C44.5733 584.872 44.0507 584.712 43.4 584.712H40.12V588.36ZM53.1613 595.144C52.5426 595.144 51.9773 595.043 51.4653 594.84C50.9639 594.637 50.5319 594.344 50.1692 593.96C49.8066 593.576 49.5239 593.117 49.3212 592.584C49.1186 592.051 49.0172 591.453 49.0172 590.792C49.0172 589.917 49.1826 589.155 49.5132 588.504C49.8546 587.843 50.3346 587.331 50.9532 586.968C51.5826 586.595 52.3186 586.408 53.1613 586.408C53.7799 586.408 54.3399 586.509 54.8412 586.712C55.3533 586.904 55.7906 587.192 56.1533 587.576C56.5159 587.96 56.7933 588.424 56.9853 588.968C57.1879 589.501 57.2893 590.104 57.2893 590.776C57.2893 591.64 57.1239 592.403 56.7933 593.064C56.4626 593.715 55.9879 594.227 55.3693 594.6C54.7506 594.963 54.0146 595.144 53.1613 595.144ZM53.1613 593.768C53.6519 593.768 54.0786 593.656 54.4413 593.432C54.8146 593.197 55.1026 592.856 55.3053 592.408C55.5079 591.96 55.6093 591.416 55.6093 590.776C55.6093 590.296 55.5506 589.875 55.4332 589.512C55.3266 589.139 55.1666 588.824 54.9532 588.568C54.7399 588.301 54.4839 588.104 54.1853 587.976C53.8866 587.837 53.5453 587.768 53.1613 587.768C52.6706 587.768 52.2386 587.885 51.8653 588.12C51.5026 588.355 51.2146 588.696 51.0013 589.144C50.7986 589.581 50.6972 590.131 50.6972 590.792C50.6972 591.261 50.7506 591.683 50.8572 592.056C50.9746 592.419 51.1399 592.728 51.3533 592.984C51.5773 593.24 51.8386 593.437 52.1372 593.576C52.4466 593.704 52.7879 593.768 53.1613 593.768ZM61.5911 595C61.1218 595 60.7538 594.936 60.4871 594.808C60.2205 594.669 60.0338 594.467 59.9271 594.2C59.8205 593.933 59.7671 593.613 59.7671 593.24V587.88H58.1671V586.536H59.7671V584.088L61.4151 583.896V586.536H63.2871V587.88H61.4151V592.936C61.4151 593.224 61.4685 593.416 61.5751 593.512C61.6818 593.597 61.8685 593.64 62.1351 593.64H63.2871V595H61.5911ZM72.3592 595.144C71.7406 595.144 71.1752 595.043 70.6632 594.84C70.1619 594.627 69.7299 594.328 69.3672 593.944C69.0152 593.56 68.7379 593.101 68.5352 592.568C68.3432 592.035 68.2472 591.437 68.2472 590.776C68.2472 589.901 68.4179 589.139 68.7592 588.488C69.1006 587.827 69.5859 587.315 70.2152 586.952C70.8446 586.589 71.5806 586.408 72.4232 586.408C73.1059 586.408 73.7139 586.536 74.2472 586.792C74.7912 587.048 75.2232 587.405 75.5432 587.864C75.8739 588.323 76.0606 588.856 76.1032 589.464H74.5032C74.4392 589.091 74.3059 588.781 74.1032 588.536C73.9006 588.291 73.6499 588.104 73.3512 587.976C73.0632 587.848 72.7379 587.784 72.3752 587.784C71.8526 587.784 71.4099 587.912 71.0472 588.168C70.6846 588.413 70.4072 588.76 70.2152 589.208C70.0232 589.656 69.9272 590.184 69.9272 590.792C69.9272 591.421 70.0286 591.96 70.2312 592.408C70.4339 592.845 70.7166 593.181 71.0792 593.416C71.4419 593.651 71.8686 593.768 72.3592 593.768C72.7752 593.768 73.1379 593.693 73.4472 593.544C73.7566 593.395 74.0019 593.187 74.1832 592.92C74.3752 592.643 74.4926 592.328 74.5352 591.976H76.1353C76.0926 592.616 75.9059 593.176 75.5752 593.656C75.2446 594.125 74.8019 594.493 74.2472 594.76C73.6926 595.016 73.0632 595.144 72.3592 595.144ZM81.5356 595.144C80.917 595.144 80.3516 595.043 79.8396 594.84C79.3383 594.637 78.9063 594.344 78.5436 593.96C78.181 593.576 77.8983 593.117 77.6956 592.584C77.493 592.051 77.3916 591.453 77.3916 590.792C77.3916 589.917 77.557 589.155 77.8876 588.504C78.229 587.843 78.709 587.331 79.3276 586.968C79.957 586.595 80.693 586.408 81.5356 586.408C82.1543 586.408 82.7143 586.509 83.2156 586.712C83.7276 586.904 84.165 587.192 84.5276 587.576C84.8903 587.96 85.1676 588.424 85.3596 588.968C85.5623 589.501 85.6636 590.104 85.6636 590.776C85.6636 591.64 85.4983 592.403 85.1676 593.064C84.837 593.715 84.3623 594.227 83.7436 594.6C83.125 594.963 82.389 595.144 81.5356 595.144ZM81.5356 593.768C82.0263 593.768 82.453 593.656 82.8156 593.432C83.189 593.197 83.477 592.856 83.6796 592.408C83.8823 591.96 83.9836 591.416 83.9836 590.776C83.9836 590.296 83.925 589.875 83.8076 589.512C83.701 589.139 83.541 588.824 83.3276 588.568C83.1143 588.301 82.8583 588.104 82.5596 587.976C82.261 587.837 81.9196 587.768 81.5356 587.768C81.045 587.768 80.613 587.885 80.2396 588.12C79.877 588.355 79.589 588.696 79.3756 589.144C79.173 589.581 79.0716 590.131 79.0716 590.792C79.0716 591.261 79.125 591.683 79.2316 592.056C79.349 592.419 79.5143 592.728 79.7276 592.984C79.9516 593.24 80.213 593.437 80.5116 593.576C80.821 593.704 81.1623 593.768 81.5356 593.768ZM87.5495 595V586.536H89.1175L89.1815 588.216H89.2775C89.5122 587.619 89.8802 587.171 90.3815 586.872C90.8935 586.563 91.4588 586.408 92.0775 586.408C92.6962 586.408 93.2508 586.557 93.7415 586.856C94.2428 587.155 94.6002 587.667 94.8135 588.392H94.9415C95.1762 587.731 95.5602 587.235 96.0935 586.904C96.6375 586.573 97.2455 586.408 97.9175 586.408C98.4722 586.408 98.9682 586.525 99.4055 586.76C99.8535 586.995 100.205 587.373 100.462 587.896C100.718 588.419 100.845 589.112 100.845 589.976V595H99.2135V590.312C99.2135 589.736 99.1442 589.261 99.0055 588.888C98.8668 588.504 98.6588 588.221 98.3815 588.04C98.1042 587.859 97.7415 587.768 97.2935 587.768C96.8348 587.768 96.4348 587.885 96.0935 588.12C95.7522 588.355 95.4855 588.669 95.2935 589.064C95.1122 589.448 95.0215 589.885 95.0215 590.376V595H93.3735V590.312C93.3735 589.736 93.3042 589.261 93.1655 588.888C93.0268 588.504 92.8188 588.221 92.5415 588.04C92.2642 587.859 91.9068 587.768 91.4695 587.768C91.0002 587.768 90.5948 587.885 90.2535 588.12C89.9122 588.355 89.6455 588.669 89.4535 589.064C89.2722 589.448 89.1815 589.885 89.1815 590.376V595H87.5495ZM103.225 595V586.536H104.793L104.857 588.216H104.953C105.188 587.619 105.556 587.171 106.057 586.872C106.569 586.563 107.134 586.408 107.753 586.408C108.372 586.408 108.926 586.557 109.417 586.856C109.918 587.155 110.276 587.667 110.489 588.392H110.617C110.852 587.731 111.236 587.235 111.769 586.904C112.313 586.573 112.921 586.408 113.593 586.408C114.148 586.408 114.644 586.525 115.081 586.76C115.529 586.995 115.881 587.373 116.137 587.896C116.393 588.419 116.521 589.112 116.521 589.976V595H114.889V590.312C114.889 589.736 114.82 589.261 114.681 588.888C114.542 588.504 114.334 588.221 114.057 588.04C113.78 587.859 113.417 587.768 112.969 587.768C112.51 587.768 112.11 587.885 111.769 588.12C111.428 588.355 111.161 588.669 110.969 589.064C110.788 589.448 110.697 589.885 110.697 590.376V595H109.049V590.312C109.049 589.736 108.98 589.261 108.841 588.888C108.702 588.504 108.494 588.221 108.217 588.04C107.94 587.859 107.582 587.768 107.145 587.768C106.676 587.768 106.27 587.885 105.929 588.12C105.588 588.355 105.321 588.669 105.129 589.064C104.948 589.448 104.857 589.885 104.857 590.376V595H103.225ZM121.781 595.144C121.269 595.144 120.799 595.048 120.373 594.856C119.957 594.664 119.594 594.387 119.285 594.024C118.975 593.651 118.735 593.192 118.565 592.648C118.405 592.104 118.325 591.475 118.325 590.76C118.325 589.821 118.469 589.027 118.757 588.376C119.055 587.725 119.461 587.235 119.973 586.904C120.495 586.563 121.098 586.392 121.781 586.392C122.25 586.392 122.677 586.467 123.061 586.616C123.455 586.765 123.786 586.979 124.053 587.256C124.33 587.523 124.533 587.837 124.661 588.2H124.757L124.821 586.536H126.405V595H124.757V593.32H124.661C124.458 593.864 124.106 594.307 123.605 594.648C123.103 594.979 122.495 595.144 121.781 595.144ZM122.357 593.784C122.879 593.784 123.317 593.661 123.669 593.416C124.021 593.171 124.287 592.856 124.469 592.472C124.65 592.088 124.741 591.677 124.741 591.24V590.28C124.741 589.843 124.65 589.432 124.469 589.048C124.287 588.664 124.021 588.349 123.669 588.104C123.317 587.859 122.879 587.736 122.357 587.736C121.887 587.736 121.477 587.853 121.125 588.088C120.773 588.312 120.501 588.648 120.309 589.096C120.117 589.533 120.021 590.088 120.021 590.76C120.021 591.421 120.117 591.976 120.309 592.424C120.501 592.872 120.773 593.213 121.125 593.448C121.477 593.672 121.887 593.784 122.357 593.784ZM128.873 595V586.536H130.441L130.505 588.216H130.601C130.847 587.619 131.231 587.171 131.753 586.872C132.276 586.563 132.847 586.408 133.465 586.408C133.903 586.408 134.303 586.472 134.665 586.6C135.039 586.728 135.359 586.936 135.625 587.224C135.903 587.501 136.116 587.869 136.265 588.328C136.415 588.776 136.489 589.325 136.489 589.976V595H134.841V590.312C134.841 589.736 134.772 589.261 134.633 588.888C134.495 588.504 134.281 588.221 133.993 588.04C133.705 587.859 133.332 587.768 132.873 587.768C132.393 587.768 131.972 587.885 131.609 588.12C131.257 588.355 130.985 588.669 130.793 589.064C130.601 589.448 130.505 589.885 130.505 590.376V595H128.873ZM141.757 595.144C141.245 595.144 140.776 595.048 140.349 594.856C139.933 594.664 139.57 594.387 139.261 594.024C138.952 593.651 138.712 593.192 138.541 592.648C138.381 592.104 138.301 591.475 138.301 590.76C138.301 589.821 138.445 589.027 138.733 588.376C139.032 587.725 139.437 587.235 139.949 586.904C140.472 586.563 141.074 586.392 141.757 586.392C142.226 586.392 142.653 586.467 143.037 586.616C143.432 586.765 143.762 586.979 144.029 587.256C144.306 587.523 144.509 587.837 144.637 588.2H144.733V583.336H146.381V595H144.797L144.733 593.32H144.637C144.434 593.864 144.082 594.307 143.581 594.648C143.08 594.979 142.472 595.144 141.757 595.144ZM142.333 593.784C142.856 593.784 143.293 593.661 143.645 593.416C143.997 593.171 144.264 592.856 144.445 592.472C144.626 592.088 144.717 591.677 144.717 591.24V590.28C144.717 589.96 144.664 589.651 144.557 589.352C144.461 589.043 144.312 588.771 144.109 588.536C143.917 588.291 143.672 588.099 143.373 587.96C143.074 587.811 142.728 587.736 142.333 587.736C141.864 587.736 141.453 587.853 141.101 588.088C140.749 588.312 140.477 588.648 140.285 589.096C140.093 589.533 139.997 590.088 139.997 590.76C139.997 591.421 140.093 591.976 140.285 592.424C140.477 592.872 140.749 593.213 141.101 593.448C141.453 593.672 141.864 593.784 142.333 593.784Z" fill="white"/>
<rect x="21" y="608" width="364" height="56" rx="8" fill="#2B2D31"/>
<path d="M38.216 642.1L43.744 628.82H45.376L39.84 642.1H38.216ZM49.9459 643.596H48.4339V632.284H49.7139L49.8739 633.732H49.9459V643.596ZM55.8899 636.38C55.8899 637.271 55.7592 638.039 55.4979 638.684C55.2419 639.329 54.8659 639.825 54.3699 640.172C53.8792 640.519 53.2899 640.692 52.6019 640.692C52.0312 640.692 51.5352 640.577 51.1139 640.348C50.6925 640.119 50.3379 639.807 50.0499 639.412H49.6899V638.188C50.0525 638.625 50.4259 638.94 50.8099 639.132C51.1992 639.319 51.6045 639.412 52.0259 639.412C52.5219 639.412 52.9405 639.3 53.2819 639.076C53.6232 638.852 53.8819 638.516 54.0579 638.068C54.2392 637.615 54.3299 637.052 54.3299 636.38C54.3299 635.713 54.2419 635.159 54.0659 634.716C53.8952 634.273 53.6392 633.94 53.2979 633.716C52.9619 633.492 52.5459 633.38 52.0499 633.38C51.6232 633.38 51.2179 633.473 50.8339 633.66C50.4499 633.847 50.0685 634.156 49.6899 634.588V633.372H50.0419C50.3672 632.972 50.7432 632.66 51.1699 632.436C51.6019 632.207 52.1005 632.092 52.6659 632.092C53.3539 632.092 53.9379 632.268 54.4179 632.62C54.8979 632.967 55.2632 633.46 55.5139 634.1C55.7645 634.74 55.8899 635.5 55.8899 636.38ZM58.1318 639.276H65.4757V640.5H58.1318V639.276ZM61.0438 640.5L61.0518 628.988L61.4118 629.46H58.1318V628.26L62.3638 628.084L62.5638 628.268V640.5H61.0438ZM71.5336 632.092C72.227 632.092 72.8083 632.177 73.2776 632.348C73.747 632.513 74.1043 632.788 74.3496 633.172C74.595 633.551 74.7176 634.057 74.7176 634.692V638.764C74.7176 638.967 74.747 639.119 74.8056 639.22C74.8643 639.321 74.963 639.385 75.1016 639.412C75.2403 639.439 75.4376 639.433 75.6936 639.396V640.5C75.331 640.607 74.9896 640.66 74.6696 640.66C74.3176 640.66 74.0403 640.599 73.8376 640.476C73.635 640.348 73.491 640.183 73.4056 639.98C73.3256 639.772 73.2856 639.529 73.2856 639.252L73.2056 639.116V634.78C73.2056 634.353 73.131 634.023 72.9816 633.788C72.8323 633.553 72.627 633.393 72.3656 633.308C72.1043 633.217 71.7736 633.172 71.3736 633.172C70.995 633.177 70.6723 633.223 70.4056 633.308C70.139 633.388 69.9256 633.532 69.7656 633.74C69.611 633.943 69.531 634.22 69.5256 634.572V634.924H68.1096V634.492C68.1096 633.751 68.387 633.167 68.9416 632.74C69.4963 632.308 70.3603 632.092 71.5336 632.092ZM73.7976 636.852C73.563 636.82 73.331 636.796 73.1016 636.78C72.8776 636.759 72.659 636.748 72.4456 636.748C71.795 636.748 71.2456 636.801 70.7976 636.908C70.3496 637.009 70.0056 637.175 69.7656 637.404C69.531 637.628 69.4136 637.924 69.4136 638.292C69.4136 638.564 69.475 638.793 69.5976 638.98C69.7256 639.167 69.907 639.308 70.1416 639.404C70.3816 639.5 70.667 639.548 70.9976 639.548C71.4403 639.548 71.8456 639.465 72.2136 639.3C72.587 639.135 72.9843 638.892 73.4056 638.572L73.4456 639.476H73.1496L73.0056 639.604C72.7336 639.833 72.475 640.023 72.2296 640.172C71.9896 640.321 71.707 640.444 71.3816 640.54C71.0616 640.641 70.707 640.692 70.3176 640.692C69.811 640.692 69.371 640.604 68.9976 640.428C68.6243 640.252 68.3363 639.999 68.1336 639.668C67.931 639.337 67.8296 638.94 67.8296 638.476C67.8296 637.74 68.0803 637.183 68.5816 636.804C69.083 636.425 69.7283 636.177 70.5176 636.06C71.307 635.943 72.2643 635.889 73.3896 635.9L73.7976 636.852ZM85.5675 637.996C85.4182 638.588 85.1622 639.087 84.7995 639.492C84.4422 639.892 84.0022 640.193 83.4795 640.396C82.9568 640.593 82.3782 640.692 81.7435 640.692C80.9222 640.692 80.2022 640.529 79.5835 640.204C78.9702 639.873 78.4928 639.385 78.1515 638.74C77.8102 638.089 77.6395 637.3 77.6395 636.372C77.6395 635.439 77.8128 634.652 78.1595 634.012C78.5115 633.372 78.9995 632.892 79.6235 632.572C80.2528 632.252 80.9862 632.092 81.8235 632.092C82.5062 632.092 83.1168 632.199 83.6555 632.412C84.1942 632.625 84.6288 632.951 84.9595 633.388C85.2955 633.825 85.4982 634.364 85.5675 635.004L84.0715 635.132C83.9808 634.524 83.7328 634.073 83.3275 633.78C82.9275 633.481 82.4128 633.332 81.7835 633.332C80.9355 633.332 80.2928 633.593 79.8555 634.116C79.4182 634.633 79.1995 635.385 79.1995 636.372C79.1995 637.055 79.3008 637.625 79.5035 638.084C79.7115 638.543 80.0048 638.887 80.3835 639.116C80.7675 639.34 81.2235 639.452 81.7515 639.452C82.3542 639.452 82.8528 639.311 83.2475 639.028C83.6475 638.74 83.9328 638.319 84.1035 637.764L85.5675 637.996ZM87.5614 636.38C87.5614 635.468 87.732 634.692 88.0734 634.052C88.42 633.407 88.908 632.919 89.5374 632.588C90.1667 632.257 90.9027 632.092 91.7454 632.092C92.524 632.092 93.188 632.228 93.7374 632.5C94.2867 632.767 94.7054 633.172 94.9934 633.716C95.2867 634.26 95.4334 634.929 95.4334 635.724V636.444H88.7214V635.436H94.3534L93.9534 635.78V635.452C93.9534 634.743 93.748 634.212 93.3374 633.86C92.9267 633.508 92.38 633.332 91.6974 633.332C90.876 633.332 90.2387 633.593 89.7854 634.116C89.3374 634.633 89.1134 635.388 89.1134 636.38C89.1134 637.388 89.3374 638.153 89.7854 638.676C90.2334 639.193 90.8707 639.452 91.6974 639.452C92.2307 639.452 92.6867 639.34 93.0654 639.116C93.444 638.892 93.732 638.551 93.9294 638.092L95.4014 638.34C95.2147 638.847 94.9454 639.276 94.5934 639.628C94.2467 639.98 93.828 640.247 93.3374 640.428C92.8467 640.604 92.2974 640.692 91.6894 640.692C90.8627 640.692 90.14 640.527 89.5214 640.196C88.9027 639.865 88.42 639.377 88.0734 638.732C87.732 638.087 87.5614 637.303 87.5614 636.38ZM109.061 632.284L115.725 640.5H113.869L107.221 632.284H109.061ZM113.861 632.284H115.605L111.997 636.756L111.157 635.796L113.861 632.284ZM108.893 640.5H107.101L110.901 635.804L111.677 636.844L108.893 640.5ZM121.343 640.74C121.066 640.74 120.815 640.681 120.591 640.564C120.367 640.452 120.188 640.287 120.055 640.068C119.927 639.849 119.863 639.593 119.863 639.3C119.863 639.007 119.927 638.751 120.055 638.532C120.188 638.313 120.367 638.148 120.591 638.036C120.815 637.919 121.066 637.86 121.343 637.86C121.615 637.86 121.863 637.919 122.087 638.036C122.311 638.148 122.487 638.313 122.615 638.532C122.748 638.751 122.815 639.007 122.815 639.3C122.815 639.588 122.748 639.844 122.615 640.068C122.487 640.287 122.311 640.452 122.087 640.564C121.863 640.681 121.615 640.74 121.343 640.74ZM121.343 634.516C121.066 634.516 120.815 634.457 120.591 634.34C120.367 634.223 120.188 634.055 120.055 633.836C119.927 633.617 119.863 633.364 119.863 633.076C119.863 632.777 119.927 632.521 120.055 632.308C120.188 632.089 120.367 631.924 120.591 631.812C120.815 631.695 121.066 631.636 121.343 631.636C121.615 631.636 121.863 631.695 122.087 631.812C122.311 631.924 122.487 632.089 122.615 632.308C122.748 632.521 122.815 632.777 122.815 633.076C122.815 633.364 122.748 633.617 122.615 633.836C122.487 634.055 122.311 634.223 122.087 634.34C121.863 634.457 121.615 634.516 121.343 634.516ZM127.937 631.068C128.225 631.068 128.558 630.964 128.937 630.756C129.321 630.548 129.668 630.271 129.977 629.924C130.286 629.577 130.489 629.209 130.585 628.82H131.753C131.689 629.449 131.454 630.057 131.049 630.644C130.649 631.225 130.164 631.697 129.593 632.06C129.028 632.417 128.476 632.596 127.937 632.596V631.068ZM130.585 640.5V628.82H132.137V640.5H130.585ZM127.649 639.188H135.153V640.5H127.649V639.188ZM140.875 628.628C141.632 628.628 142.285 628.743 142.835 628.972C143.389 629.196 143.816 629.545 144.115 630.02C144.419 630.489 144.571 631.081 144.571 631.796C144.571 632.543 144.427 633.175 144.139 633.692C143.856 634.204 143.515 634.615 143.115 634.924C142.715 635.233 142.192 635.572 141.547 635.94C141.477 635.983 141.405 636.025 141.331 636.068C141.208 636.143 141.083 636.215 140.955 636.284C140.363 636.641 139.909 636.969 139.595 637.268C139.28 637.561 139.053 637.887 138.915 638.244C138.781 638.596 138.723 639.023 138.739 639.524L138.403 639.188H144.979V640.5H137.251V639.188C137.251 638.591 137.368 638.049 137.603 637.564C137.837 637.073 138.176 636.623 138.619 636.212C139.067 635.801 139.659 635.38 140.395 634.948C140.432 634.927 140.459 634.911 140.475 634.9C140.496 634.884 140.528 634.868 140.571 634.852C140.629 634.815 140.688 634.78 140.747 634.748C141.253 634.46 141.659 634.199 141.963 633.964C142.272 633.724 142.523 633.431 142.715 633.084C142.912 632.732 143.011 632.308 143.011 631.812C143.011 631.167 142.835 630.689 142.483 630.38C142.131 630.071 141.616 629.916 140.939 629.916C140.501 629.916 140.128 629.985 139.819 630.124C139.515 630.257 139.272 630.473 139.091 630.772C138.909 631.065 138.792 631.455 138.739 631.94L137.251 631.804C137.272 631.068 137.44 630.465 137.755 629.996C138.075 629.521 138.499 629.175 139.027 628.956C139.56 628.737 140.176 628.628 140.875 628.628ZM156.783 632.284H158.414L161.191 638.708H161.303L163.727 632.284H165.255L162.079 640.372C161.801 641.081 161.489 641.684 161.143 642.18C160.796 642.676 160.367 643.068 159.855 643.356C159.348 643.644 158.737 643.788 158.023 643.788C157.873 643.788 157.729 643.78 157.591 643.764C157.457 643.748 157.329 643.729 157.207 643.708C157.143 643.697 157.092 643.687 157.055 643.676V642.324C157.092 642.335 157.14 642.345 157.199 642.356C157.337 642.388 157.476 642.412 157.615 642.428C157.753 642.444 157.9 642.452 158.055 642.452C158.487 642.452 158.855 642.383 159.159 642.244C159.463 642.111 159.705 641.935 159.887 641.716C160.068 641.503 160.212 641.26 160.319 640.988L160.719 639.908L160.975 640.188L160.775 641.372L156.783 632.284ZM170.952 640.74C170.675 640.74 170.424 640.681 170.2 640.564C169.976 640.452 169.798 640.287 169.664 640.068C169.536 639.849 169.472 639.593 169.472 639.3C169.472 639.007 169.536 638.751 169.664 638.532C169.798 638.313 169.976 638.148 170.2 638.036C170.424 637.919 170.675 637.86 170.952 637.86C171.224 637.86 171.472 637.919 171.696 638.036C171.92 638.148 172.096 638.313 172.224 638.532C172.358 638.751 172.424 639.007 172.424 639.3C172.424 639.588 172.358 639.844 172.224 640.068C172.096 640.287 171.92 640.452 171.696 640.564C171.472 640.681 171.224 640.74 170.952 640.74ZM170.952 634.516C170.675 634.516 170.424 634.457 170.2 634.34C169.976 634.223 169.798 634.055 169.664 633.836C169.536 633.617 169.472 633.364 169.472 633.076C169.472 632.777 169.536 632.521 169.664 632.308C169.798 632.089 169.976 631.924 170.2 631.812C170.424 631.695 170.675 631.636 170.952 631.636C171.224 631.636 171.472 631.695 171.696 631.812C171.92 631.924 172.096 632.089 172.224 632.308C172.358 632.521 172.424 632.777 172.424 633.076C172.424 633.364 172.358 633.617 172.224 633.836C172.096 634.055 171.92 634.223 171.696 634.34C171.472 634.457 171.224 634.516 170.952 634.516ZM177.546 631.068C177.834 631.068 178.168 630.964 178.546 630.756C178.93 630.548 179.277 630.271 179.586 629.924C179.896 629.577 180.098 629.209 180.194 628.82H181.362C181.298 629.449 181.064 630.057 180.658 630.644C180.258 631.225 179.773 631.697 179.202 632.06C178.637 632.417 178.085 632.596 177.546 632.596V631.068ZM180.194 640.5V628.82H181.746V640.5H180.194ZM177.258 639.188H184.762V640.5H177.258V639.188ZM190.484 628.628C191.241 628.628 191.895 628.743 192.444 628.972C192.999 629.196 193.425 629.545 193.724 630.02C194.028 630.489 194.18 631.081 194.18 631.796C194.18 632.543 194.036 633.175 193.748 633.692C193.465 634.204 193.124 634.615 192.724 634.924C192.324 635.233 191.801 635.572 191.156 635.94C191.087 635.983 191.015 636.025 190.94 636.068C190.817 636.143 190.692 636.215 190.564 636.284C189.972 636.641 189.519 636.969 189.204 637.268C188.889 637.561 188.663 637.887 188.524 638.244C188.391 638.596 188.332 639.023 188.348 639.524L188.012 639.188H194.588V640.5H186.86V639.188C186.86 638.591 186.977 638.049 187.212 637.564C187.447 637.073 187.785 636.623 188.228 636.212C188.676 635.801 189.268 635.38 190.004 634.948C190.041 634.927 190.068 634.911 190.084 634.9C190.105 634.884 190.137 634.868 190.18 634.852C190.239 634.815 190.297 634.78 190.356 634.748C190.863 634.46 191.268 634.199 191.572 633.964C191.881 633.724 192.132 633.431 192.324 633.084C192.521 632.732 192.62 632.308 192.62 631.812C192.62 631.167 192.444 630.689 192.092 630.38C191.74 630.071 191.225 629.916 190.548 629.916C190.111 629.916 189.737 629.985 189.428 630.124C189.124 630.257 188.881 630.473 188.7 630.772C188.519 631.065 188.401 631.455 188.348 631.94L186.86 631.804C186.881 631.068 187.049 630.465 187.364 629.996C187.684 629.521 188.108 629.175 188.636 628.956C189.169 628.737 189.785 628.628 190.484 628.628ZM214.552 637.996C214.403 638.588 214.147 639.087 213.784 639.492C213.427 639.892 212.987 640.193 212.464 640.396C211.941 640.593 211.363 640.692 210.728 640.692C209.907 640.692 209.187 640.529 208.568 640.204C207.955 639.873 207.477 639.385 207.136 638.74C206.795 638.089 206.624 637.3 206.624 636.372C206.624 635.439 206.797 634.652 207.144 634.012C207.496 633.372 207.984 632.892 208.608 632.572C209.237 632.252 209.971 632.092 210.808 632.092C211.491 632.092 212.101 632.199 212.64 632.412C213.179 632.625 213.613 632.951 213.944 633.388C214.28 633.825 214.483 634.364 214.552 635.004L213.056 635.132C212.965 634.524 212.717 634.073 212.312 633.78C211.912 633.481 211.397 633.332 210.768 633.332C209.92 633.332 209.277 633.593 208.84 634.116C208.403 634.633 208.184 635.385 208.184 636.372C208.184 637.055 208.285 637.625 208.488 638.084C208.696 638.543 208.989 638.887 209.368 639.116C209.752 639.34 210.208 639.452 210.736 639.452C211.339 639.452 211.837 639.311 212.232 639.028C212.632 638.74 212.917 638.319 213.088 637.764L214.552 637.996ZM224.562 636.404C224.562 637.332 224.386 638.119 224.034 638.764C223.682 639.404 223.202 639.887 222.594 640.212C221.986 640.532 221.306 640.692 220.554 640.692C219.802 640.692 219.122 640.532 218.514 640.212C217.911 639.887 217.431 639.404 217.074 638.764C216.722 638.119 216.546 637.332 216.546 636.404C216.546 635.481 216.722 634.695 217.074 634.044C217.431 633.393 217.911 632.905 218.514 632.58C219.122 632.255 219.802 632.092 220.554 632.092C221.306 632.092 221.986 632.255 222.594 632.58C223.202 632.905 223.682 633.393 224.034 634.044C224.386 634.689 224.562 635.476 224.562 636.404ZM223.002 636.404C223.002 635.721 222.898 635.151 222.69 634.692C222.487 634.233 222.202 633.892 221.834 633.668C221.471 633.444 221.044 633.332 220.554 633.332C220.063 633.332 219.634 633.444 219.266 633.668C218.898 633.892 218.61 634.233 218.402 634.692C218.199 635.151 218.098 635.721 218.098 636.404C218.098 637.081 218.199 637.649 218.402 638.108C218.61 638.561 218.895 638.9 219.258 639.124C219.626 639.343 220.058 639.452 220.554 639.452C221.05 639.452 221.479 639.343 221.842 639.124C222.204 638.9 222.487 638.561 222.69 638.108C222.898 637.649 223.002 637.081 223.002 636.404ZM226.804 639.276H234.148V640.5H226.804V639.276ZM229.716 640.5L229.724 628.988L230.084 629.46H226.804V628.26L231.036 628.084L231.236 628.268V640.5H229.716ZM244.406 636.404C244.406 637.332 244.23 638.119 243.878 638.764C243.526 639.404 243.046 639.887 242.438 640.212C241.83 640.532 241.15 640.692 240.398 640.692C239.646 640.692 238.966 640.532 238.358 640.212C237.755 639.887 237.275 639.404 236.918 638.764C236.566 638.119 236.39 637.332 236.39 636.404C236.39 635.481 236.566 634.695 236.918 634.044C237.275 633.393 237.755 632.905 238.358 632.58C238.966 632.255 239.646 632.092 240.398 632.092C241.15 632.092 241.83 632.255 242.438 632.58C243.046 632.905 243.526 633.393 243.878 634.044C244.23 634.689 244.406 635.476 244.406 636.404ZM242.846 636.404C242.846 635.721 242.742 635.151 242.534 634.692C242.331 634.233 242.046 633.892 241.678 633.668C241.315 633.444 240.888 633.332 240.398 633.332C239.907 633.332 239.478 633.444 239.11 633.668C238.742 633.892 238.454 634.233 238.246 634.692C238.043 635.151 237.942 635.721 237.942 636.404C237.942 637.081 238.043 637.649 238.246 638.108C238.454 638.561 238.739 638.9 239.102 639.124C239.47 639.343 239.902 639.452 240.398 639.452C240.894 639.452 241.323 639.343 241.686 639.124C242.048 638.9 242.331 638.561 242.534 638.108C242.742 637.649 242.846 637.081 242.846 636.404ZM250.135 633.772H250.207V640.492H248.695V633.148L249.055 633.508H246.511V632.284H249.975L250.135 633.772ZM254.207 633.58C253.487 633.58 252.898 633.609 252.439 633.668C251.986 633.721 251.557 633.833 251.151 634.004C250.751 634.169 250.322 634.428 249.863 634.78V633.452H250.311C250.765 632.988 251.223 632.647 251.687 632.428C252.151 632.204 252.727 632.092 253.415 632.092C253.703 632.092 253.967 632.116 254.207 632.164V633.58ZM246.511 639.276H253.119V640.5H246.511V639.276ZM260.249 640.74C259.972 640.74 259.721 640.681 259.497 640.564C259.273 640.452 259.095 640.287 258.961 640.068C258.833 639.849 258.769 639.593 258.769 639.3C258.769 639.007 258.833 638.751 258.961 638.532C259.095 638.313 259.273 638.148 259.497 638.036C259.721 637.919 259.972 637.86 260.249 637.86C260.521 637.86 260.769 637.919 260.993 638.036C261.217 638.148 261.393 638.313 261.521 638.532C261.655 638.751 261.721 639.007 261.721 639.3C261.721 639.588 261.655 639.844 261.521 640.068C261.393 640.287 261.217 640.452 260.993 640.564C260.769 640.681 260.521 640.74 260.249 640.74ZM260.249 634.516C259.972 634.516 259.721 634.457 259.497 634.34C259.273 634.223 259.095 634.055 258.961 633.836C258.833 633.617 258.769 633.364 258.769 633.076C258.769 632.777 258.833 632.521 258.961 632.308C259.095 632.089 259.273 631.924 259.497 631.812C259.721 631.695 259.972 631.636 260.249 631.636C260.521 631.636 260.769 631.695 260.993 631.812C261.217 631.924 261.393 632.089 261.521 632.308C261.655 632.521 261.721 632.777 261.721 633.076C261.721 633.364 261.655 633.617 261.521 633.836C261.393 634.055 261.217 634.223 260.993 634.34C260.769 634.457 260.521 634.516 260.249 634.516ZM266.715 640.5V628.26H268.227V640.5H266.715ZM272.099 640.5V635.02C272.099 634.599 272.032 634.263 271.899 634.012C271.766 633.761 271.584 633.585 271.355 633.484C271.131 633.383 270.87 633.332 270.571 633.332C270.048 633.332 269.571 633.468 269.139 633.74C268.712 634.007 268.328 634.38 267.987 634.86V633.46H268.419C268.664 633.193 268.918 632.961 269.179 632.764C269.446 632.567 269.752 632.407 270.099 632.284C270.451 632.156 270.84 632.092 271.267 632.092C271.758 632.092 272.176 632.183 272.523 632.364C272.875 632.54 273.144 632.815 273.331 633.188C273.518 633.561 273.611 634.039 273.611 634.62V640.5H272.099ZM278.149 643.596H276.637V632.284H277.917L278.077 633.732H278.149V643.596ZM284.093 636.38C284.093 637.271 283.962 638.039 283.701 638.684C283.445 639.329 283.069 639.825 282.573 640.172C282.082 640.519 281.493 640.692 280.805 640.692C280.234 640.692 279.738 640.577 279.317 640.348C278.896 640.119 278.541 639.807 278.253 639.412H277.893V638.188C278.256 638.625 278.629 638.94 279.013 639.132C279.402 639.319 279.808 639.412 280.229 639.412C280.725 639.412 281.144 639.3 281.485 639.076C281.826 638.852 282.085 638.516 282.261 638.068C282.442 637.615 282.533 637.052 282.533 636.38C282.533 635.713 282.445 635.159 282.269 634.716C282.098 634.273 281.842 633.94 281.501 633.716C281.165 633.492 280.749 633.38 280.253 633.38C279.826 633.38 279.421 633.473 279.037 633.66C278.653 633.847 278.272 634.156 277.893 634.588V633.372H278.245C278.57 632.972 278.946 632.66 279.373 632.436C279.805 632.207 280.304 632.092 280.869 632.092C281.557 632.092 282.141 632.268 282.621 632.62C283.101 632.967 283.466 633.46 283.717 634.1C283.968 634.74 284.093 635.5 284.093 636.38ZM290.039 632.092C290.77 632.092 291.388 632.183 291.895 632.364C292.407 632.54 292.799 632.809 293.071 633.172C293.348 633.535 293.498 633.991 293.519 634.54L292.143 634.636C292.09 634.167 291.879 633.815 291.511 633.58C291.148 633.34 290.623 633.22 289.935 633.22C289.29 633.22 288.788 633.316 288.431 633.508C288.079 633.7 287.903 633.985 287.903 634.364C287.903 634.577 287.967 634.759 288.095 634.908C288.223 635.052 288.426 635.177 288.703 635.284C288.98 635.391 289.375 635.503 289.887 635.62C290.154 635.679 290.324 635.716 290.399 635.732C291.194 635.897 291.815 636.071 292.263 636.252C292.711 636.433 293.047 636.673 293.271 636.972C293.5 637.265 293.615 637.647 293.615 638.116C293.615 638.639 293.476 639.092 293.199 639.476C292.927 639.86 292.519 640.159 291.975 640.372C291.436 640.58 290.77 640.684 289.975 640.684C289.196 640.684 288.538 640.604 287.999 640.444C287.466 640.279 287.036 640.009 286.711 639.636C286.386 639.257 286.162 638.751 286.039 638.116L287.431 637.94C287.554 638.393 287.74 638.735 287.991 638.964C288.242 639.193 288.524 639.343 288.839 639.412C289.159 639.481 289.562 639.516 290.047 639.516C290.516 639.516 290.906 639.46 291.215 639.348C291.524 639.236 291.748 639.089 291.887 638.908C292.031 638.721 292.103 638.513 292.103 638.284C292.103 638.055 292.026 637.865 291.871 637.716C291.716 637.567 291.471 637.436 291.135 637.324C290.799 637.207 290.303 637.079 289.647 636.94L289.463 636.908C288.77 636.764 288.204 636.593 287.767 636.396C287.335 636.199 287.007 635.948 286.783 635.644C286.564 635.34 286.455 634.959 286.455 634.5C286.455 633.743 286.751 633.153 287.343 632.732C287.94 632.305 288.839 632.092 290.039 632.092ZM301.937 633.732L302.097 632.284H303.377V643.596H301.865V633.732H301.937ZM295.921 636.404C295.921 635.513 296.049 634.745 296.305 634.1C296.566 633.455 296.942 632.959 297.433 632.612C297.929 632.265 298.521 632.092 299.209 632.092C299.779 632.092 300.275 632.207 300.697 632.436C301.118 632.66 301.473 632.969 301.761 633.364H302.121V634.588C301.758 634.156 301.382 633.847 300.993 633.66C300.609 633.468 300.206 633.372 299.785 633.372C299.289 633.372 298.87 633.484 298.529 633.708C298.187 633.932 297.926 634.271 297.745 634.724C297.569 635.172 297.481 635.732 297.481 636.404C297.481 637.065 297.566 637.62 297.737 638.068C297.913 638.511 298.169 638.844 298.505 639.068C298.846 639.292 299.265 639.404 299.761 639.404C300.187 639.404 300.593 639.311 300.977 639.124C301.361 638.937 301.742 638.625 302.121 638.188V639.412H301.769C301.443 639.807 301.065 640.119 300.633 640.348C300.206 640.577 299.71 640.692 299.145 640.692C298.457 640.692 297.873 640.519 297.393 640.172C296.913 639.82 296.547 639.324 296.297 638.684C296.046 638.039 295.921 637.279 295.921 636.404Z" fill="white"/>
<rect x="337" y="620" width="32" height="32" rx="4" fill="white" fill-opacity="0.12"/>
<path d="M350.5 641C350.088 641 349.734 640.853 349.441 640.559C349.147 640.266 349 639.913 349 639.5V629.5C349 629.088 349.147 628.734 349.441 628.441C349.734 628.147 350.088 628 350.5 628H358.5C358.913 628 359.266 628.147 359.559 628.441C359.853 628.734 360 629.088 360 629.5V639.5C360 639.913 359.853 640.266 359.559 640.559C359.266 640.853 358.913 641 358.5 641H350.5ZM350.5 639.5H358.5V629.5H350.5V639.5ZM347.5 644C347.088 644 346.734 643.853 346.441 643.559C346.147 643.266 346 642.913 346 642.5V631H347.5V642.5H357V644H347.5Z" fill="white"/>
</g>
<defs>
<filter id="filter0_d_422_199" x="0" y="0" width="406" height="689" filterUnits="userSpaceOnUse" color-interpolation-filters="sRGB">
<feFlood flood-opacity="0" result="BackgroundImageFix"/>
<feColorMatrix in="SourceAlpha" type="matrix" values="0 0 0 0 0 0 0 0 0 0 0 0 0 0 0 0 0 0 127 0" result="hardAlpha"/>
<feOffset dy="4"/>
<feGaussianBlur stdDeviation="2"/>
<feComposite in2="hardAlpha" operator="out"/>
<feColorMatrix type="matrix" values="0 0 0 0 0 0 0 0 0 0 0 0 0 0 0 0 0 0 0.25 0"/>
<feBlend mode="normal" in2="BackgroundImageFix" result="effect1_dropShadow_422_199"/>
<feBlend mode="normal" in="SourceGraphic" in2="effect1_dropShadow_422_199" result="shape"/>
</filter>
<clipPath id="clip0_422_199">
<rect x="21" y="60" width="364" height="440" rx="8" fill="white"/>
</clipPath>
</defs>
</svg>
