<svg width="656" height="100" viewBox="0 0 656 100" fill="none" xmlns="http://www.w3.org/2000/svg">
<rect width="30.4348" height="30.4348" rx="5.65217" fill="white"/>
<rect y="34.7826" width="30.4348" height="30.4348" rx="5.65217" fill="white"/>
<rect y="69.5652" width="30.4348" height="30.4348" rx="5.65217" fill="#5865F2"/>
<rect x="34.7827" width="30.4348" height="30.4348" rx="5.65217" fill="white"/>
<rect x="34.7827" y="34.7826" width="30.4348" height="30.4348" rx="5.65217" fill="#5865F2"/>
<rect x="34.7827" y="69.5652" width="30.4348" height="30.4348" rx="5.6087" fill="white"/>
<rect x="69.5654" width="30.4348" height="30.4348" rx="5.65217" fill="#5865F2"/>
<rect x="69.5654" y="34.7826" width="30.4348" height="30.4348" rx="5.65217" fill="white"/>
<rect x="69.5654" y="69.5652" width="30.4348" height="30.4348" rx="5.65217" fill="white"/>
<path d="M143.72 72V28.26H169.46C173.22 28.26 176.22 28.7 178.46 29.58C180.7 30.46 182.32 31.74 183.32 33.42C184.32 35.1 184.82 37.14 184.82 39.54C184.82 41.14 184.52 42.6 183.92 43.92C183.36 45.24 182.54 46.34 181.46 47.22C180.42 48.06 179.18 48.62 177.74 48.9V49.44C179.54 49.72 181.06 50.3 182.3 51.18C183.58 52.06 184.54 53.22 185.18 54.66C185.86 56.06 186.2 57.72 186.2 59.64C186.2 62.44 185.52 64.76 184.16 66.6C182.8 68.4 180.82 69.76 178.22 70.68C175.62 71.56 172.46 72 168.74 72H143.72ZM157.4 62.7H166.22C168.62 62.7 170.26 62.3 171.14 61.5C172.02 60.7 172.46 59.66 172.46 58.38C172.46 56.86 171.94 55.78 170.9 55.14C169.9 54.46 168.34 54.12 166.22 54.12H157.4V62.7ZM157.4 45.18H165.68C167.12 45.18 168.24 45.02 169.04 44.7C169.84 44.38 170.4 43.92 170.72 43.32C171.08 42.72 171.26 42.02 171.26 41.22C171.26 39.82 170.74 38.88 169.7 38.4C168.66 37.88 167.3 37.62 165.62 37.62H157.4V45.18ZM189.76 72V28.26H203.02V72H189.76ZM222.017 72.6C219.177 72.6 216.697 72.12 214.577 71.16C212.457 70.2 210.817 68.6 209.657 66.36C208.497 64.12 207.917 61.12 207.917 57.36V39.36H221.177V54.96C221.177 56.44 221.317 57.78 221.597 58.98C221.917 60.14 222.477 61.06 223.277 61.74C224.117 62.38 225.277 62.7 226.757 62.7C228.197 62.7 229.417 62.4 230.417 61.8C231.417 61.2 232.177 60.36 232.697 59.28C233.257 58.2 233.537 56.98 233.537 55.62V39.36H246.797V72H234.077L233.537 67.26H232.997C232.077 68.86 230.597 70.16 228.557 71.16C226.557 72.12 224.377 72.6 222.017 72.6ZM252.045 72V39.36H264.105L264.525 44.04H265.005C265.685 42.48 266.725 41.24 268.125 40.32C269.565 39.36 271.305 38.88 273.345 38.88C273.825 38.88 274.265 38.88 274.665 38.88C275.065 38.88 275.465 38.9 275.865 38.94V50.82C275.345 50.74 274.845 50.68 274.365 50.64C273.885 50.6 273.425 50.58 272.985 50.58C271.305 50.58 269.885 50.84 268.725 51.36C267.605 51.88 266.745 52.74 266.145 53.94C265.585 55.1 265.305 56.68 265.305 58.68V72H252.045ZM279.76 82.02V39.36H292.3L292.72 43.62H293.14C294.1 42.22 295.48 41.08 297.28 40.2C299.12 39.32 301.5 38.88 304.42 38.88C306.78 38.88 308.92 39.28 310.84 40.08C312.76 40.84 314.42 41.96 315.82 43.44C317.22 44.88 318.3 46.64 319.06 48.72C319.82 50.8 320.2 53.14 320.2 55.74C320.2 59.18 319.54 62.16 318.22 64.68C316.9 67.2 315.04 69.16 312.64 70.56C310.28 71.92 307.5 72.6 304.3 72.6C302.74 72.6 301.26 72.4 299.86 72C298.46 71.64 297.22 71.12 296.14 70.44C295.06 69.72 294.16 68.86 293.44 67.86H293.02V82.02H279.76ZM300.16 62.7C301.52 62.7 302.7 62.44 303.7 61.92C304.7 61.4 305.48 60.62 306.04 59.58C306.64 58.54 306.94 57.26 306.94 55.74C306.94 54.22 306.66 52.96 306.1 51.96C305.54 50.92 304.74 50.14 303.7 49.62C302.7 49.06 301.52 48.78 300.16 48.78C298.68 48.78 297.4 49.06 296.32 49.62C295.24 50.18 294.42 50.96 293.86 51.96C293.3 52.92 293.02 54.06 293.02 55.38V56.1C293.02 57.06 293.18 57.96 293.5 58.8C293.82 59.6 294.28 60.3 294.88 60.9C295.52 61.46 296.28 61.9 297.16 62.22C298.04 62.54 299.04 62.7 300.16 62.7ZM324.115 72V28.26H337.375V72H324.115ZM361.532 72.6C357.412 72.6 353.832 71.94 350.792 70.62C347.792 69.3 345.452 67.4 343.772 64.92C342.132 62.44 341.312 59.44 341.312 55.92C341.312 52.24 342.152 49.14 343.832 46.62C345.552 44.06 347.912 42.12 350.912 40.8C353.952 39.44 357.452 38.76 361.412 38.76C365.772 38.76 369.452 39.54 372.452 41.1C375.492 42.66 377.752 44.92 379.232 47.88C380.712 50.84 381.292 54.42 380.972 58.62H354.572C354.612 59.7 354.912 60.64 355.472 61.44C356.072 62.24 356.912 62.86 357.992 63.3C359.072 63.7 360.372 63.9 361.892 63.9C363.532 63.9 364.972 63.66 366.212 63.18C367.452 62.66 368.252 62.02 368.612 61.26H381.092C380.852 63.5 379.852 65.48 378.092 67.2C376.332 68.92 374.032 70.26 371.192 71.22C368.352 72.14 365.132 72.6 361.532 72.6ZM354.212 52.32L353.792 51.72H368.492L367.952 52.26C367.872 51.34 367.592 50.52 367.112 49.8C366.632 49.08 365.912 48.52 364.952 48.12C364.032 47.72 362.832 47.52 361.352 47.52C360.032 47.52 358.872 47.7 357.872 48.06C356.872 48.38 356.052 48.9 355.412 49.62C354.812 50.34 354.412 51.24 354.212 52.32ZM421.363 72.6C417.283 72.6 413.663 72.08 410.503 71.04C407.343 69.96 404.663 68.44 402.463 66.48C400.303 64.48 398.663 62.1 397.543 59.34C396.423 56.58 395.863 53.5 395.863 50.1C395.863 46.7 396.423 43.62 397.543 40.86C398.663 38.1 400.303 35.74 402.463 33.78C404.663 31.82 407.343 30.32 410.503 29.28C413.663 28.2 417.283 27.66 421.363 27.66C426.003 27.66 430.023 28.34 433.423 29.7C436.823 31.06 439.523 32.94 441.523 35.34C443.523 37.74 444.703 40.54 445.063 43.74H431.263C430.943 42.66 430.303 41.72 429.343 40.92C428.383 40.12 427.223 39.5 425.863 39.06C424.503 38.62 423.003 38.4 421.363 38.4C419.043 38.4 417.003 38.82 415.243 39.66C413.483 40.46 412.123 41.72 411.163 43.44C410.203 45.16 409.723 47.38 409.723 50.1C409.723 52.14 410.003 53.9 410.563 55.38C411.123 56.82 411.903 58.02 412.903 58.98C413.943 59.94 415.163 60.66 416.563 61.14C418.003 61.58 419.603 61.8 421.363 61.8C422.963 61.8 424.463 61.58 425.863 61.14C427.263 60.7 428.443 60.08 429.403 59.28C430.403 58.48 431.063 57.54 431.383 56.46H445.063C444.703 59.7 443.443 62.54 441.283 64.98C439.123 67.38 436.323 69.26 432.883 70.62C429.443 71.94 425.603 72.6 421.363 72.6ZM463.5 72.6C461.14 72.6 458.98 72.22 457.02 71.46C455.1 70.66 453.44 69.52 452.04 68.04C450.64 66.56 449.56 64.78 448.8 62.7C448.04 60.62 447.66 58.3 447.66 55.74C447.66 52.26 448.32 49.26 449.64 46.74C450.96 44.22 452.8 42.28 455.16 40.92C457.56 39.56 460.34 38.88 463.5 38.88C465.46 38.88 467.16 39.08 468.6 39.48C470.04 39.88 471.26 40.44 472.26 41.16C473.3 41.84 474.12 42.66 474.72 43.62H475.2L475.56 39.36H488.16V72H474.9V67.86H474.42C473.42 69.34 471.94 70.5 469.98 71.34C468.02 72.18 465.86 72.6 463.5 72.6ZM467.76 62.7C469.24 62.7 470.5 62.42 471.54 61.86C472.62 61.3 473.44 60.52 474 59.52C474.56 58.52 474.84 57.38 474.84 56.1V55.38C474.84 54.06 474.56 52.92 474 51.96C473.44 50.96 472.62 50.18 471.54 49.62C470.5 49.06 469.24 48.78 467.76 48.78C466.44 48.78 465.26 49.04 464.22 49.56C463.22 50.08 462.42 50.86 461.82 51.9C461.26 52.94 460.98 54.22 460.98 55.74C460.98 57.26 461.26 58.54 461.82 59.58C462.38 60.62 463.16 61.4 464.16 61.92C465.2 62.44 466.4 62.7 467.76 62.7ZM493.334 72V39.36H506.114L506.594 44.1H507.194C508.154 42.42 509.654 41.12 511.694 40.2C513.774 39.24 515.914 38.76 518.114 38.76C520.234 38.76 522.154 39.02 523.874 39.54C525.594 40.06 527.074 40.92 528.314 42.12C529.554 43.28 530.514 44.84 531.194 46.8C531.874 48.76 532.214 51.18 532.214 54.06V72H518.954V56.4C518.954 54.88 518.794 53.54 518.474 52.38C518.194 51.22 517.634 50.32 516.794 49.68C515.994 49 514.834 48.66 513.314 48.66C511.914 48.66 510.714 48.98 509.714 49.62C508.714 50.22 507.934 51.06 507.374 52.14C506.854 53.18 506.594 54.38 506.594 55.74V72H493.334ZM545.558 72L532.238 39.36H545.738L551.738 57.12L553.058 61.92H553.598L554.978 57.12L561.038 39.36H574.538L561.278 72H545.558ZM589.066 72.6C586.706 72.6 584.546 72.22 582.586 71.46C580.666 70.66 579.006 69.52 577.606 68.04C576.206 66.56 575.126 64.78 574.366 62.7C573.606 60.62 573.226 58.3 573.226 55.74C573.226 52.26 573.886 49.26 575.206 46.74C576.526 44.22 578.366 42.28 580.726 40.92C583.126 39.56 585.906 38.88 589.066 38.88C591.026 38.88 592.726 39.08 594.166 39.48C595.606 39.88 596.826 40.44 597.826 41.16C598.866 41.84 599.686 42.66 600.286 43.62H600.766L601.126 39.36H613.726V72H600.466V67.86H599.986C598.986 69.34 597.506 70.5 595.546 71.34C593.586 72.18 591.426 72.6 589.066 72.6ZM593.326 62.7C594.806 62.7 596.066 62.42 597.106 61.86C598.186 61.3 599.006 60.52 599.566 59.52C600.126 58.52 600.406 57.38 600.406 56.1V55.38C600.406 54.06 600.126 52.92 599.566 51.96C599.006 50.96 598.186 50.18 597.106 49.62C596.066 49.06 594.806 48.78 593.326 48.78C592.006 48.78 590.826 49.04 589.786 49.56C588.786 50.08 587.986 50.86 587.386 51.9C586.826 52.94 586.546 54.22 586.546 55.74C586.546 57.26 586.826 58.54 587.386 59.58C587.946 60.62 588.726 61.4 589.726 61.92C590.766 62.44 591.966 62.7 593.326 62.7ZM635.654 72.6C631.734 72.6 628.434 72.16 625.754 71.28C623.114 70.4 621.074 69.14 619.634 67.5C618.234 65.82 617.434 63.84 617.234 61.56H630.194C630.394 62.68 630.954 63.52 631.874 64.08C632.794 64.6 634.194 64.86 636.074 64.86C637.714 64.86 638.934 64.66 639.734 64.26C640.574 63.86 640.994 63.28 640.994 62.52C640.994 61.88 640.814 61.42 640.454 61.14C640.094 60.82 639.474 60.6 638.594 60.48C637.754 60.32 636.534 60.18 634.934 60.06C630.854 59.66 627.594 59.1 625.154 58.38C622.754 57.66 621.014 56.64 619.934 55.32C618.854 53.96 618.314 52.16 618.314 49.92C618.314 47.68 618.994 45.74 620.354 44.1C621.714 42.42 623.694 41.12 626.294 40.2C628.934 39.24 632.134 38.76 635.894 38.76C639.094 38.76 641.914 39.16 644.354 39.96C646.834 40.76 648.814 41.96 650.294 43.56C651.814 45.12 652.694 47.06 652.934 49.38H640.454C640.334 48.74 640.074 48.22 639.674 47.82C639.274 47.38 638.754 47.06 638.114 46.86C637.474 46.62 636.714 46.5 635.834 46.5C634.394 46.5 633.254 46.68 632.414 47.04C631.574 47.4 631.154 47.98 631.154 48.78C631.154 49.34 631.354 49.78 631.754 50.1C632.194 50.38 632.894 50.6 633.854 50.76C634.854 50.88 636.174 51.02 637.814 51.18C640.854 51.42 643.414 51.78 645.494 52.26C647.574 52.7 649.234 53.32 650.474 54.12C651.714 54.92 652.614 55.94 653.174 57.18C653.734 58.38 654.014 59.88 654.014 61.68C654.014 64.96 652.514 67.6 649.514 69.6C646.554 71.6 641.934 72.6 635.654 72.6Z" fill="white"/>
</svg>
